<?xml version="1.0" encoding="UTF-8"?><svg id="Layer_2" xmlns="http://www.w3.org/2000/svg" width="261.58" height="597.52" viewBox="0 0 261.58 597.52"><g id="Layer_1-2"><path id="bp-thigh-left-back" d="M128.74,320.59v.41c0,22.77-7.76,74.87-9.78,86.23-.16.87-.91,1.5-1.79,1.5h-26.18c-3.85,0-7.13-2.73-7.78-6.51-.36-2.04-.81-4.1-1.34-6.11-2.15-8.15-6.43-46.37-6.63-77.24-.06-9.34.54-19.12,1.8-29.08.06-.49.35-.9.78-1.11.22-.11.44-.16.66-.16s.46.06.67.17c0,0,0,0,.02,0l45.17,24.59c2.69,1.47,4.37,4.26,4.38,7.3Z"/><path id="bp-calf-left-back" d="M112.18,516.74c-1.28,7.4-2.48,14.39-3.16,20.21-.44,3.78-.85,8.26-1.24,13.32-1.24.09-4.21.12-11.09-.34-1.73-.11-3.18-1.37-3.55-3.06-.66-3.05-1.47-6.58-2.42-10.67-2.81-12.17-6.32-27.33-8.4-42.56-2.67-19.66-1.19-35.88-.07-43.79.16-1.19.79-2.23,1.78-2.92.76-.54,1.64-.83,2.55-.83.29,0,.58.03.86.09l20.4,4.01s.09.02.13.03c.03,0,.08,0,.11.02l6.37,1.25c.83.16,1.42.9,1.41,1.74-.11,9.1.11,16.09.68,20.78,1.25,10.27-1.73,27.52-4.36,42.74Z"/><path id="bp-hand-left-back" d="M42.9,319.68c-.25,5.13-.51,9.58-1.12,17.61-.69,9.18-1.71,10.72-4.21,10.2-2.52-.53-1.2-13.07-1.05-15.37.21-3.14,0-5.44-.72-4.18-.74,1.25-1.79,18.61-2.82,22.89-1.05,4.29-4.3,4.81-5.12,1.47-.85-3.35,1.42-19.84,1.57-21.22.41-4.38-.22-5.12-.95-3.34-.72,1.78-1.78,26.34-6.16,26.87-4.4.52-2.31-8.58-1.67-12.65.62-4.08,1.04-10.45,1.14-11.71.29-3.75.86-5.56-.42-4.39-1.04.94-4.27,16.51-4.81,19.76-.51,3.24-1.33,7.45-4.49,6.58-2.88-.79-.79-8.36-.19-13.9.38-3.48,1.44-12.53,2.04-17.69.14-1.17-1.42-1.7-2.02-.69-.01.02-.03.05-.04.07-1.46,2.51-5.1,6.72-8.7,8.45-3.65,1.73-3.93-1.97-1.88-4.47,1.73-2.15,5.24-10.35,6.81-13.07,1.57-2.72,7.43-11.89,11.91-16.18,0-.02.03-.03.03-.03.95-.89,2.15-1.38,3.39-1.47.11.21.24.41.38.6,1.08,1.48,2.67,2.45,4.5,2.7l8.41,1.16c.31.04.61.06.92.06.41,0,.81-.04,1.2-.11,1.68-.31,3.29.8,3.46,2.5.5,4.96.95,12.4.6,19.55Z"/><path id="bp-shoulder-left-back" d="M83.11,130.21c0,.25,0,.51-.03.77,0,.33-.03.66-.04.99-.03.59-.07,1.18-.11,1.79-.06.75-.12,1.51-.21,2.28-.03.35-.07.69-.11,1.04-.16,1.41-.36,2.84-.6,4.31-.06.37-.12.74-.19,1.11-.32,1.86-.72,3.8-1.17,5.79-.09.4-.18.79-.28,1.2-.21.87-.43,1.76-.66,2.66-.17.66-.35,1.34-.54,2.02-.62,2.22-1.32,4.51-2.11,6.9v.02c-.45,1.37-1.94,2.09-3.29,1.59l-22.43-8.3c-.99-.37-1.65-1.3-1.66-2.35-.07-6.22.07-16.67.07-16.75,1.09-23.6,13.21-28.13,26.32-32.36,1.16-.42,2.01-.53,2.71,1.33.41,1.12.8,2.25,1.17,3.4.09.3.19.6.28.9.29.97.57,1.94.82,2.93.1.39.21.79.29,1.18.04.15.08.3.11.45.08.35.16.69.23,1.04.1.48.21.97.29,1.45.08.4.16.8.22,1.21.03.15.06.3.08.46.09.52.17,1.04.24,1.56.09.59.16,1.18.22,1.78.05.44.09.89.13,1.34.04.4.08.8.1,1.21.03.45.07.9.09,1.35.03.59.06,1.18.07,1.78.03,1.29.03,2.59,0,3.93Z"/><path id="bp-arm-left-back" d="M64.9,219.84c.4,11.38-9.56,35.19-15.51,47.48-4.18,8.64-7.01,18.11-8.64,24.54-.4,1.6-1.93,2.62-3.56,2.4l-8.4-1.16c-.89-.12-1.66-.59-2.17-1.3-.52-.72-.72-1.59-.55-2.46,1.94-10.69,6.65-37.44,8.37-55.06,2.26-23.22,9.6-32.71,9.67-32.8.27-.33.4-.75.38-1.17-.74-13.09,1.98-26.59,3.78-35.52.33-1.61.62-3.07.85-4.35.29-1.55,1.9-2.47,3.38-1.92l20.56,7.6c1.22.45,1.9,1.75,1.58,3.01-3.16,12.48-10.07,41.58-9.73,50.73Z"/><path id="bp-knee-left-back" d="M117.58,418.61c0,.2,0,.4-.03.6-.56,6.44-1.04,14.07-1.35,21.51-.08,1.89-.97,3.65-2.46,4.82-1.48,1.16-3.4,1.62-5.25,1.26l-20.42-4.01c-2.96-.59-5.15-3.17-5.21-6.13-.1-5.07.26-11.18,1.12-18.71.38-3.29,3.11-5.76,6.35-5.76h20.78c1.84,0,3.53.74,4.76,2.1,1.1,1.2,1.7,2.73,1.7,4.34Z"/><path id="bp-ankle-left-back" d="M109.75,573.75l-18.03.89c-.02-.63-.03-1.26-.05-1.89-.04-1.24-.08-2.41-.04-3.59.04-1.62.27-3.33.71-5.38.16-.69.31-1.38.47-2.07.19-.81.38-1.62.55-2.44.05-.22.08-.47.08-.7v-1.16c0-.59-.14-1.65-.47-3.62l14.41,1.16.52.53c.16,3.75.38,7.73.85,11.65.24,1.98.56,4.09,1.01,6.62Z"/><path id="bp-upper-back" d="M131.13,184.57c17.58,0,35.17,0,46.84,0,3.57-.94,2.48-7.41,3.72-10.28,1.58-5.44,1.05-10.36-1.17-15.46-3.97-12.65-6.37-25.96-4.63-39.21.47-3.76,1.24-7.49,2.29-11.14.93-2.92,2.67-6.78-1.09-8.64-21.32-10.54-14.75-11.48-44.44-12.35-.55,0-1.12.01-1.68.02-.56,0-1.12,0-1.68-.02-30.4.88-23.12,1.81-44.44,12.35-3.76,1.86-2.02,5.72-1.09,8.64,1.04,3.65,1.82,7.38,2.29,11.14,1.73,13.25-.66,26.56-4.63,39.21-2.23,5.1-2.75,10.03-1.17,15.46,1.23,2.86.15,9.34,3.72,10.28,11.67,0,29.26,0,46.84,0"/><path id="bp-lower-back" d="M176.3,188.02h-91.01c-1.18,0-2.07,1.08-1.84,2.23,2.19,11.07,3.92,21.42,3.52,28.99-.58,10.25-1.55,23.6-2.59,31.51-.15,1.12.73,2.11,1.86,2.11h89.11c1.13,0,2-.99,1.86-2.11-1.03-7.91-2-21.27-2.59-31.51-.4-7.57,1.33-17.92,3.52-28.99.23-1.16-.66-2.23-1.84-2.23Z"/><path id="bp-pelvis-back" d="M178.87,259.47c-.05-.21-.1-.41-.14-.6-.35-1.5-1.69-2.55-3.22-2.55h-44.5c-.12,0-.22.1-.22.22,0-.12-.1-.22-.22-.22h-44.5c-1.54,0-2.87,1.05-3.22,2.55-.05.2-.09.4-.14.6-1.29,5.53-3.23,13.88-4.83,24.43-.02.09.03.18.11.22l2.85,1.55,45.17,24.59s.08.04.11.07l4.37,2.37s.08.03.12.03c.1-.02.19-.1.19-.22,0,.11.09.2.19.22.04,0,.09,0,.12-.03l4.37-2.37s.08-.05.11-.07l45.17-24.59,2.85-1.55c.08-.03.13-.13.11-.22-1.6-10.54-3.55-18.89-4.83-24.43Z"/><path id="bp-thigh-right-back" d="M132.85,320.59v.41c0,22.77,7.76,74.87,9.78,86.23.16.87.91,1.5,1.79,1.5h26.18c3.85,0,7.13-2.73,7.78-6.51.36-2.04.81-4.1,1.34-6.11,2.15-8.15,6.43-46.37,6.63-77.24.06-9.34-.54-19.12-1.8-29.08-.06-.49-.35-.9-.78-1.11-.22-.11-.44-.16-.66-.16s-.46.06-.67.17c0,0,0,0-.02,0l-45.17,24.59c-2.69,1.47-4.37,4.26-4.38,7.3Z"/><path id="bp-calf-right-back" d="M149.4,516.74c1.28,7.4,2.48,14.39,3.16,20.21.44,3.78.85,8.26,1.24,13.32,1.24.09,4.21.12,11.09-.34,1.73-.11,3.18-1.37,3.55-3.06.66-3.05,1.47-6.58,2.42-10.67,2.81-12.17,6.32-27.33,8.4-42.56,2.67-19.66,1.19-35.88.07-43.79-.16-1.19-.79-2.23-1.78-2.92-.76-.54-1.64-.83-2.55-.83-.29,0-.58.03-.86.09l-20.4,4.01s-.09.02-.13.03c-.03,0-.08,0-.11.02l-6.37,1.25c-.83.16-1.42.9-1.41,1.74.11,9.1-.11,16.09-.68,20.78-1.25,10.27,1.73,27.52,4.36,42.74Z"/><path id="bp-hand-right-back" d="M218.68,319.68c.25,5.13.51,9.58,1.12,17.61.69,9.18,1.71,10.72,4.21,10.2,2.52-.53,1.2-13.07,1.05-15.37-.21-3.14,0-5.44.72-4.18.74,1.25,1.79,18.61,2.82,22.89,1.05,4.29,4.3,4.81,5.12,1.47.85-3.35-1.42-19.84-1.57-21.22-.41-4.38.22-5.12.95-3.34.72,1.78,1.78,26.34,6.16,26.87,4.4.52,2.31-8.58,1.67-12.65-.62-4.08-1.04-10.45-1.14-11.71-.29-3.75-.86-5.56.42-4.39,1.04.94,4.27,16.51,4.81,19.76.51,3.24,1.33,7.45,4.49,6.58,2.88-.79.79-8.36.19-13.9-.38-3.48-1.44-12.53-2.04-17.69-.14-1.17,1.42-1.7,2.02-.69.01.02.03.05.04.07,1.46,2.51,5.1,6.72,8.7,8.45,3.65,1.73,3.93-1.97,1.88-4.47-1.73-2.15-5.24-10.35-6.81-13.07-1.57-2.72-7.43-11.89-11.91-16.18,0-.02-.03-.03-.03-.03-.95-.89-2.15-1.38-3.39-1.47-.11.21-.24.41-.38.6-1.08,1.48-2.67,2.45-4.5,2.7l-8.41,1.16c-.31.04-.61.06-.92.06-.41,0-.81-.04-1.2-.11-1.68-.31-3.29.8-3.46,2.5-.5,4.96-.95,12.4-.6,19.55Z"/><path id="bp-shoulder-right-back" d="M178.47,130.21c0,.25,0,.51.03.77,0,.33.03.66.04.99.03.59.07,1.18.11,1.79.06.75.12,1.51.21,2.28.03.35.07.69.11,1.04.16,1.41.36,2.84.6,4.31.06.37.12.74.19,1.11.32,1.86.72,3.8,1.17,5.79.09.4.18.79.28,1.2.21.87.43,1.76.66,2.66.17.66.35,1.34.54,2.02.62,2.22,1.32,4.51,2.11,6.9v.02c.45,1.37,1.94,2.09,3.29,1.59l22.43-8.3c.99-.37,1.65-1.3,1.66-2.35.07-6.22-.07-16.67-.07-16.75-1.09-23.6-13.21-28.13-26.32-32.36-1.16-.42-2.01-.53-2.71,1.33-.41,1.12-.8,2.25-1.17,3.4-.09.3-.19.6-.28.9-.29.97-.57,1.94-.82,2.93-.1.39-.21.79-.29,1.18-.04.15-.08.3-.11.45-.08.35-.16.69-.23,1.04-.1.48-.21.97-.29,1.45-.08.4-.16.8-.22,1.21-.03.15-.06.3-.08.46-.09.52-.17,1.04-.24,1.56-.09.59-.16,1.18-.22,1.78-.05.44-.09.89-.13,1.34-.04.4-.08.8-.1,1.21-.03.45-.07.9-.09,1.35-.03.59-.06,1.18-.07,1.78-.03,1.29-.03,2.59,0,3.93Z"/><path id="bp-arm-right-back" d="M196.68,219.84c-.4,11.38,9.56,35.19,15.51,47.48,4.18,8.64,7.01,18.11,8.64,24.54.4,1.6,1.93,2.62,3.56,2.4l8.4-1.16c.89-.12,1.66-.59,2.17-1.3.52-.72.72-1.59.55-2.46-1.94-10.69-6.65-37.44-8.37-55.06-2.26-23.22-9.6-32.71-9.67-32.8-.27-.33-.4-.75-.38-1.17.74-13.09-1.98-26.59-3.78-35.52-.33-1.61-.62-3.07-.85-4.35-.29-1.55-1.9-2.47-3.38-1.92l-20.56,7.6c-1.22.45-1.9,1.75-1.58,3.01,3.16,12.48,10.07,41.58,9.73,50.73Z"/><path id="bp-knee-right-back" d="M144,418.61c0,.2,0,.4.03.6.56,6.44,1.04,14.07,1.35,21.51.08,1.89.97,3.65,2.46,4.82,1.48,1.16,3.4,1.62,5.25,1.26l20.42-4.01c2.96-.59,5.15-3.17,5.21-6.13.1-5.07-.26-11.18-1.12-18.71-.38-3.29-3.11-5.76-6.35-5.76h-20.78c-1.84,0-3.53.74-4.76,2.1-1.1,1.2-1.7,2.73-1.7,4.34Z"/><path id="bp-ankle-right-back" d="M151.83,573.75l18.03.89c.02-.63.03-1.26.05-1.89.04-1.24.08-2.41.04-3.59-.04-1.62-.27-3.33-.71-5.38-.16-.69-.31-1.38-.47-2.07-.19-.81-.38-1.62-.55-2.44-.05-.22-.08-.47-.08-.7v-1.16c0-.59.14-1.65.47-3.62l-14.41,1.16-.52.53c-.16,3.75-.38,7.73-.85,11.65-.24,1.98-.56,4.09-1.01,6.62Z"/><path id="bp-ear-back" d="M105.19,55.41c-6.32-1.81-9.88-19.39-6.61-21.07.85-.44,1.55-.59,2.13-.57.28,0,.52.04.74.11,0,0,3.48,1.73,4.71,21.68-.33,0-.65-.05-.97-.14ZM163.01,34.34c-.85-.44-1.55-.59-2.13-.57-.28,0-.52.04-.74.11,0,0-3.48,1.73-4.71,21.68.33,0,.65-.05.97-.14,6.32-1.81,9.88-19.39,6.61-21.07Z"/><path id="bp-neck-back" d="M157.77,87.06c.31.18-5.89-1.37-6.24-1.45-4.14-1.05-7.95-1.23-12.63-1.23-2.42,0-5.06.05-8.11.05h-.51c-8.91,0-13.78-.41-20.05,1.18-.35.08-6.55,1.63-6.24,1.45,4.74-2.6,9.64-10.96,11-18.04.15-.77.84-1.32,1.62-1.32h28.54c.79,0,1.48.55,1.62,1.32,1.36,7.08,6.26,15.44,11,18.04Z"/><path d="M154.79,39.77c.79-2.32,1.67-3.91,2.42-7,.01-.04.02-.07.02-.11.2-1.18.32-2.33.37-3.47l-2.81,10.58ZM104.36,32.66s.01.07.01.11c.84,3.43,1.83,5.01,2.68,7.79.05.16.14.3.26.42-.15-.44-2.37-6.65-3.12-9.42.05.36.1.73.17,1.1Z"/><path id="bp-head-back" d="M157.6,29.19l-2.81,10.58-.03.11-.98,5.21c-.35,2-.65,4.42-.89,7.34l-.02.16c-.69,3.67-2.32,7.41-4.72,10.74-.63.87-1.64,1.4-2.71,1.4h-29.35c-1.07,0-2.08-.53-2.71-1.39-2.42-3.32-4.04-7.07-4.73-10.73l-.02-.17c-.21-3.13-.49-5.47-.82-7.33l-.49-4.1s0,0,0-.02c-.15-.44-2.37-6.65-3.12-9.42-.09-.34-.16-.63-.2-.85-.38-2.07.29-8.31.29-8.31,0,0,.04,0,.13-.02,3.68-21.11,31.67-32.35,48.86-10.62l.14.19c1.51,2.4,2.87,5.81,3.61,9.55,1.27,4.59.58,7.69.58,7.69Z"/><path id="bp-foot-left-back" d="M114.08,589.25c0,2.76-1.08,4.66-2.88,5.94-2.5,1.77-6.43,2.34-10.83,2.34-7.57,0-13.7-1.68-13.7-8.27,0-5.33,4.01-9.84,9.55-11.37,1.3-.36,2.7-.56,4.15-.56.9,0,1.77.08,2.61.22,4.75.8,8.63,3.74,10.26,7.61,0,0,0,0,0,0,.54,1.28.84,2.66.84,4.1Z"/><path id="bp-foot-right-back" d="M147.2,589.25c0,2.76,1.08,4.66,2.88,5.94,2.5,1.77,6.43,2.34,10.83,2.34,7.57,0,13.7-1.68,13.7-8.27,0-5.33-4.01-9.84-9.55-11.37-1.3-.36-2.7-.56-4.15-.56-.9,0-1.77.08-2.61.22-4.75.8-8.63,3.74-10.26,7.61,0,0,0,0,0,0-.54,1.28-.84,2.66-.84,4.1Z"/></g></svg>