<?xml version="1.0" encoding="UTF-8"?><svg id="Layer_2" xmlns="http://www.w3.org/2000/svg" width="261.58" height="620.34" viewBox="0 0 261.58 620.34"><g id="Layer_1-2"><path id="bp-thigh-right" d="M128.74,320.59v.41c0,22.77-7.76,74.87-9.78,86.23-.16.87-.91,1.5-1.79,1.5h-26.18c-3.85,0-7.13-2.73-7.78-6.51-.36-2.04-.81-4.1-1.34-6.11-2.15-8.15-6.43-46.37-6.63-77.24-.06-9.34.54-19.12,1.8-29.08.06-.49.35-.9.78-1.11.22-.11.44-.16.66-.16s.46.06.67.17c0,0,0,0,.02,0l45.17,24.59c2.69,1.47,4.37,4.26,4.38,7.3Z"/><path id="bp-calf-right" d="M112.18,516.74c-1.28,7.4-2.48,14.39-3.16,20.21-.44,3.78-.85,8.26-1.24,13.32-1.24.09-4.21.12-11.09-.34-1.73-.11-3.18-1.37-3.55-3.06-.66-3.05-1.47-6.58-2.42-10.67-2.81-12.17-6.32-27.33-8.4-42.56-2.67-19.66-1.19-35.88-.07-43.79.16-1.19.79-2.23,1.78-2.92.76-.54,1.64-.83,2.55-.83.29,0,.58.03.86.09l20.4,4.01s.09.02.13.03c.03,0,.08,0,.11.02l6.37,1.25c.83.16,1.42.9,1.41,1.74-.11,9.1.11,16.09.68,20.78,1.25,10.27-1.73,27.52-4.36,42.74Z"/><path id="bp-foot-right" d="M113.28,584.47c0,1.02-.21,1.76-.38,3.74-.22,2.61-5.26,19.33-6.95,23.57-.77,1.92-1.79,3.74-3.27,5.2-.66.66-1.43,1.27-2.29,1.69-.47.35-.95.66-1.43.9-1.24.62-2.65.91-4.02.71-1.34-.19-2.77-.82-3.43-2.02-.16-.28-.41-.49-.72-.62l-.08-.03c-.57-.24-1.21-.12-1.67.28-.89.75-1.95,1.3-3.14,1.35-1.3.03-2.67-.48-3.3-1.69-.12-.23-.21-.48-.26-.74-.98.58-2.18.91-3.3.6-.65-.18-1.13-.54-1.43-1.03-.23-.36-.57-.63-.99-.72-1.44-.3-2.76-1.4-3.15-2.83-.12-.45-.16-.9-.11-1.32-.29-.04-.58-.13-.85-.26-1.34-.67-1.73-2.09-1.46-3.49.3-1.53,1.24-2.87,2.09-4.15.8-1.23,1.65-2.42,2.55-3.58,1.78-2.35,3.68-4.59,5.56-6.86,1.85-2.25,3.68-4.54,5.29-6.98,1.11-1.69,2.23-3.46,3.14-5.29.11-.22.17-.45.2-.69,0-.14.03-.28.03-.42.07-.89.77-1.6,1.65-1.67h.12l15.69-.79h.08c2.58.04,5.03,2.04,5.52,4.59.22,1.2.3,1.93.3,2.56Z"/><path id="bp-hand-right" d="M42.9,319.68c-.25,5.13-.51,9.58-1.12,17.61-.69,9.18-1.71,10.72-4.21,10.2-2.52-.53-1.2-13.07-1.05-15.37.21-3.14,0-5.44-.72-4.18-.74,1.25-1.79,18.61-2.82,22.89-1.05,4.29-4.3,4.81-5.12,1.47-.85-3.35,1.42-19.84,1.57-21.22.41-4.38-.22-5.12-.95-3.34-.72,1.78-1.78,26.34-6.16,26.87-4.4.52-2.31-8.58-1.67-12.65.62-4.08,1.04-10.45,1.14-11.71.29-3.75.86-5.56-.42-4.39-1.04.94-4.27,16.51-4.81,19.76-.51,3.24-1.33,7.45-4.49,6.58-2.88-.79-.79-8.36-.19-13.9.38-3.48,1.44-12.53,2.04-17.69.14-1.17-1.42-1.7-2.02-.69-.01.02-.03.05-.04.07-1.46,2.51-5.1,6.72-8.7,8.45-3.65,1.73-3.93-1.97-1.88-4.47,1.73-2.15,5.24-10.35,6.81-13.07,1.57-2.72,7.43-11.89,11.91-16.18,0-.02.03-.03.03-.03.95-.89,2.15-1.38,3.39-1.47.11.21.24.41.38.6,1.08,1.48,2.67,2.45,4.5,2.7l8.41,1.16c.31.04.61.06.92.06.41,0,.81-.04,1.2-.11,1.68-.31,3.29.8,3.46,2.5.5,4.96.95,12.4.6,19.55Z"/><path id="bp-shoulder-right" d="M83.11,130.21c0,.25,0,.51-.03.77,0,.33-.03.66-.04.99-.03.59-.07,1.18-.11,1.79-.06.75-.12,1.51-.21,2.28-.03.35-.07.69-.11,1.04-.16,1.41-.36,2.84-.6,4.31-.06.37-.12.74-.19,1.11-.32,1.86-.72,3.8-1.17,5.79-.09.4-.18.79-.28,1.2-.21.87-.43,1.76-.66,2.66-.17.66-.35,1.34-.54,2.02-.62,2.22-1.32,4.51-2.11,6.9v.02c-.45,1.37-1.94,2.09-3.29,1.59l-22.43-8.3c-.99-.37-1.65-1.3-1.66-2.35-.07-6.22.07-16.67.07-16.75,1.09-23.6,13.21-28.13,26.32-32.36,1.16-.42,2.01-.53,2.71,1.33.41,1.12.8,2.25,1.17,3.4.09.3.19.6.28.9.29.97.57,1.94.82,2.93.1.39.21.79.29,1.18.04.15.08.3.11.45.08.35.16.69.23,1.04.1.48.21.97.29,1.45.08.4.16.8.22,1.21.03.15.06.3.08.46.09.52.17,1.04.24,1.56.09.59.16,1.18.22,1.78.05.44.09.89.13,1.34.04.4.08.8.1,1.21.03.45.07.9.09,1.35.03.59.06,1.18.07,1.78.03,1.29.03,2.59,0,3.93Z"/><path id="bp-arm-right" d="M64.9,219.84c.4,11.38-9.56,35.19-15.51,47.48-4.18,8.64-7.01,18.11-8.64,24.54-.4,1.6-1.93,2.62-3.56,2.4l-8.4-1.16c-.89-.12-1.66-.59-2.17-1.3-.52-.72-.72-1.59-.55-2.46,1.94-10.69,6.65-37.44,8.37-55.06,2.26-23.22,9.6-32.71,9.67-32.8.27-.33.4-.75.38-1.17-.74-13.09,1.98-26.59,3.78-35.52.33-1.61.62-3.07.85-4.35.29-1.55,1.9-2.47,3.38-1.92l20.56,7.6c1.22.45,1.9,1.75,1.58,3.01-3.16,12.48-10.07,41.58-9.73,50.73Z"/><path id="bp-knee-right" d="M117.58,418.61c0,.2,0,.4-.03.6-.56,6.44-1.04,14.07-1.35,21.51-.08,1.89-.97,3.65-2.46,4.82-1.48,1.16-3.4,1.62-5.25,1.26l-20.42-4.01c-2.96-.59-5.15-3.17-5.21-6.13-.1-5.07.26-11.18,1.12-18.71.38-3.29,3.11-5.76,6.35-5.76h20.78c1.84,0,3.53.74,4.76,2.1,1.1,1.2,1.7,2.73,1.7,4.34Z"/><path id="bp-ankle-right" d="M109.75,573.75l-18.03.89c-.02-.63-.03-1.26-.05-1.89-.04-1.24-.08-2.41-.04-3.59.04-1.62.27-3.33.71-5.38.16-.69.31-1.38.47-2.07.19-.81.38-1.62.55-2.44.05-.22.08-.47.08-.7v-1.16c0-.59-.14-1.65-.47-3.62l14.41,1.16.52.53c.16,3.75.38,7.73.85,11.65.24,1.98.56,4.09,1.01,6.62Z"/><path id="bp-chest" d="M181.74,163.62c-.24-.7-.47-1.39-.7-2.08-.03-.11-.07-.22-.1-.32-.26-.79-.52-1.59-.76-2.38-.62-1.98-1.19-3.94-1.71-5.89-.1-.39-.21-.78-.3-1.16-.3-1.16-.59-2.33-.85-3.49-.09-.38-.17-.77-.26-1.16-.16-.72-.3-1.44-.44-2.16-.07-.37-.14-.73-.21-1.1-.24-1.29-.45-2.6-.63-3.89-.04-.31-.09-.61-.12-.92-.66-5.12-.87-10.23-.52-15.41.03-.5.08-1,.13-1.5,0-.07,0-.14.02-.21.02-.3.05-.6.09-.9.03-.38.08-.76.13-1.15,0-.09.02-.18.03-.27.05-.46.11-.91.18-1.37.03-.22.06-.44.1-.66.06-.41.12-.81.2-1.22.02-.12.03-.25.07-.38.07-.44.16-.88.24-1.32.03-.21.08-.41.13-.62.08-.39.16-.79.25-1.18.03-.17.07-.35.11-.52.1-.44.21-.88.32-1.32.04-.2.09-.39.15-.58.08-.32.16-.63.25-.95.09-.34.18-.68.28-1.02.16-.55.32-1.1.49-1.65.1-.35.21-.68.32-1.03.12-.38.25-.77.38-1.15.66-1.95-.36-4.07-2.28-4.81-7.49-2.88-14.84-6.3-19.81-8.85-.3-.15-.64-.16-.95-.03-.21.09-.43.18-.51.21-.36.14-.75.28-1.16.41-.22.07-.47.15-.71.22-.24.07-.49.14-.74.21-.45.13-.91.24-1.38.35-1.04.24-2.14.45-3.29.64-.46.09-.93.16-1.41.22-.59.09-1.17.16-1.78.24-.32.03-.64.08-.97.11-.33.04-.66.08-.98.11-.63.07-1.27.13-1.92.18-.72.07-1.46.12-2.19.16-.09,0-.2.02-.29.03-.55.03-1.1.07-1.65.09-.6.04-1.19.07-1.78.09h-.07c-.09,0-.19,0-.29,0-.5.03-.99.04-1.48.05-.49.02-.98.03-1.47.03-.38.02-.76.02-1.14.03-.38,0-.76,0-1.14-.03-.48,0-.97-.02-1.47-.03-.49,0-.98-.03-1.48-.05-.1,0-.2,0-.29,0h-.07c-.59-.03-1.18-.05-1.78-.09-.55-.03-1.1-.06-1.65-.09-.09,0-.2-.02-.29-.03-.73-.04-1.47-.09-2.19-.16-.65-.05-1.29-.11-1.92-.18-.33-.03-.66-.07-.98-.11-.33-.03-.65-.08-.97-.11-.6-.08-1.19-.16-1.78-.24-.47-.07-.95-.14-1.41-.22-1.15-.19-2.25-.4-3.29-.64-.47-.1-.93-.22-1.38-.35-.25-.07-.5-.14-.74-.21-.24-.07-.48-.15-.71-.22-.41-.13-.79-.27-1.16-.41-.08-.03-.3-.12-.51-.21-.31-.13-.65-.12-.95.03-4.97,2.55-12.32,5.97-19.81,8.85-1.92.74-2.94,2.86-2.28,4.81.13.39.26.77.38,1.15.11.35.22.68.32,1.03.17.55.34,1.1.49,1.65.1.34.2.68.28,1.02.09.32.17.63.25.95.05.19.1.38.15.58.11.44.22.88.32,1.32.04.17.08.35.11.52.09.4.17.79.25,1.18.05.21.09.41.13.62.09.44.17.88.24,1.32.03.13.05.26.07.38.08.41.14.81.2,1.22.04.22.07.45.1.66.07.46.13.91.18,1.37.02.09.03.17.03.27.05.39.09.77.13,1.15.03.3.07.6.09.9.02.07.02.14.02.21.05.5.09,1,.13,1.5.35,5.18.15,10.29-.52,15.41-.03.31-.08.61-.12.92-.18,1.29-.39,2.6-.63,3.89-.07.37-.14.73-.21,1.1-.14.72-.28,1.44-.44,2.16-.09.39-.17.78-.26,1.16-.26,1.16-.54,2.33-.85,3.49-.09.39-.2.78-.3,1.16-.52,1.95-1.09,3.91-1.71,5.89-.24.79-.5,1.59-.76,2.38-.03.1-.07.21-.1.32-.22.69-.46,1.38-.7,2.08-.27.8-.54,1.62-.84,2.43.28,2.72.7,5.5,1.23,8.25.54,2.8,1.14,5.71,1.74,8.66.19.94,1.02,1.61,1.97,1.61h93.68c.96,0,1.78-.67,1.97-1.61.6-2.95,1.2-5.86,1.74-8.66.53-2.75.94-5.53,1.23-8.25-.29-.81-.57-1.63-.84-2.43Z"/><path id="bp-abdomen" d="M176.3,188.03h-91.01c-1.18,0-2.07,1.08-1.84,2.23,2.19,11.07,3.92,21.42,3.52,28.99-.58,10.25-1.55,23.6-2.59,31.51-.15,1.12.73,2.11,1.86,2.11h89.11c1.13,0,2-.99,1.86-2.11-1.03-7.91-2-21.27-2.59-31.51-.4-7.57,1.33-17.92,3.52-28.99.23-1.16-.66-2.23-1.84-2.23Z"/><path id="bp-pelvis" d="M178.87,259.47c-.05-.21-.1-.41-.14-.6-.35-1.5-1.69-2.55-3.22-2.55h-44.5c-.12,0-.22.1-.22.22,0-.12-.1-.22-.22-.22h-44.5c-1.54,0-2.87,1.05-3.22,2.55-.05.2-.09.4-.14.6-1.29,5.53-3.23,13.88-4.83,24.43-.02.09.03.18.11.22l2.85,1.55,45.17,24.59s.08.04.11.07l4.37,2.37s.08.03.12.03c.1-.02.19-.1.19-.22,0,.11.09.2.19.22.04,0,.09,0,.12-.03l4.37-2.37s.08-.05.11-.07l45.17-24.59,2.85-1.55c.08-.03.13-.13.11-.22-1.6-10.54-3.55-18.89-4.83-24.43Z"/><path id="bp-thigh-left" d="M132.85,320.59v.41c0,22.77,7.76,74.87,9.78,86.23.16.87.91,1.5,1.79,1.5h26.18c3.85,0,7.13-2.73,7.78-6.51.36-2.04.81-4.1,1.34-6.11,2.15-8.15,6.43-46.37,6.63-77.24.06-9.34-.54-19.12-1.8-29.08-.06-.49-.35-.9-.78-1.11-.22-.11-.44-.16-.66-.16s-.46.06-.67.17c0,0,0,0-.02,0l-45.17,24.59c-2.69,1.47-4.37,4.26-4.38,7.3Z"/><path id="bp-calf-left" d="M149.4,516.74c1.28,7.4,2.48,14.39,3.16,20.21.44,3.78.85,8.26,1.24,13.32,1.24.09,4.21.12,11.09-.34,1.73-.11,3.18-1.37,3.55-3.06.66-3.05,1.47-6.58,2.42-10.67,2.81-12.17,6.32-27.33,8.4-42.56,2.67-19.66,1.19-35.88.07-43.79-.16-1.19-.79-2.23-1.78-2.92-.76-.54-1.64-.83-2.55-.83-.29,0-.58.03-.86.09l-20.4,4.01s-.09.02-.13.03c-.03,0-.08,0-.11.02l-6.37,1.25c-.83.16-1.42.9-1.41,1.74.11,9.1-.11,16.09-.68,20.78-1.25,10.27,1.73,27.52,4.36,42.74Z"/><path id="bp-foot-left" d="M148.31,584.47c0,1.02.21,1.76.38,3.74.22,2.61,5.26,19.33,6.95,23.57.77,1.92,1.79,3.74,3.27,5.2.66.66,1.43,1.27,2.29,1.69.47.35.95.66,1.43.9,1.24.62,2.65.91,4.02.71,1.34-.19,2.77-.82,3.43-2.02.16-.28.41-.49.72-.62l.08-.03c.57-.24,1.21-.12,1.67.28.89.75,1.95,1.3,3.14,1.35,1.3.03,2.67-.48,3.3-1.69.12-.23.21-.48.26-.74.98.58,2.18.91,3.3.6.65-.18,1.13-.54,1.43-1.03.23-.36.57-.63.99-.72,1.44-.3,2.76-1.4,3.15-2.83.12-.45.16-.9.11-1.32.29-.04.58-.13.85-.26,1.34-.67,1.73-2.09,1.46-3.49-.3-1.53-1.24-2.87-2.09-4.15-.8-1.23-1.65-2.42-2.55-3.58-1.78-2.35-3.68-4.59-5.56-6.86-1.85-2.25-3.68-4.54-5.29-6.98-1.11-1.69-2.23-3.46-3.14-5.29-.11-.22-.17-.45-.2-.69,0-.14-.03-.28-.03-.42-.07-.89-.77-1.6-1.65-1.67h-.12s-15.69-.79-15.69-.79h-.08c-2.58.04-5.03,2.04-5.52,4.59-.22,1.2-.3,1.93-.3,2.56Z"/><path id="bp-head" d="M153.77,45.09c-.34,2-.65,4.42-.88,7.35,0,.03,0,.07-.01.1-1.57,8.56-8.24,17.56-18.14,20.66-2.73.78-5.23.8-7.96,0-9.89-3.09-16.57-12.1-18.14-20.65,0-.04-.01-.07-.01-.11-.21-3.13-.49-5.47-.82-7.33-.1-.55.36-1.04.96-1.04h44.05c.59,0,1.05.49.96,1.03ZM157.28,22.98c-.66-4.29-2.15-8.27-3.85-10.99-.05-.08-.1-.16-.16-.23-17.36-21.94-45.73-10.27-48.97,11.24-.18,1.23.87,2.31,2.2,2.31h48.58c1.34,0,2.39-1.1,2.2-2.33Z"/><path id="bp-ear" d="M106.16,55.55c-.33,0-.65-.05-.97-.14-6.32-1.81-9.88-19.39-6.61-21.07.85-.44,1.55-.59,2.13-.57.28,0,.52.04.74.11,0,0,3.48,1.73,4.71,21.68ZM155.43,55.55c.33,0,.65-.05.97-.14,6.32-1.81,9.88-19.39,6.61-21.07-.85-.44-1.55-.59-2.13-.57-.28,0-.52.04-.74.11,0,0-3.48,1.73-4.71,21.68Z"/><path id="bp-hand-left" d="M218.68,319.68c.25,5.13.51,9.58,1.12,17.61.69,9.18,1.71,10.72,4.21,10.2,2.52-.53,1.2-13.07,1.05-15.37-.21-3.14,0-5.44.72-4.18.74,1.25,1.79,18.61,2.82,22.89,1.05,4.29,4.3,4.81,5.12,1.47.85-3.35-1.42-19.84-1.57-21.22-.41-4.38.22-5.12.95-3.34.72,1.78,1.78,26.34,6.16,26.87,4.4.52,2.31-8.58,1.67-12.65-.62-4.08-1.04-10.45-1.14-11.71-.29-3.75-.86-5.56.42-4.39,1.04.94,4.27,16.51,4.81,19.76.51,3.24,1.33,7.45,4.49,6.58,2.88-.79.79-8.36.19-13.9-.38-3.48-1.44-12.53-2.04-17.69-.14-1.17,1.42-1.7,2.02-.69.01.02.03.05.04.07,1.46,2.51,5.1,6.72,8.7,8.45,3.65,1.73,3.93-1.97,1.88-4.47-1.73-2.15-5.24-10.35-6.81-13.07-1.57-2.72-7.43-11.89-11.91-16.18,0-.02-.03-.03-.03-.03-.95-.89-2.15-1.38-3.39-1.47-.11.21-.24.41-.38.6-1.08,1.48-2.67,2.45-4.5,2.7l-8.41,1.16c-.31.04-.61.06-.92.06-.41,0-.81-.04-1.2-.11-1.68-.31-3.29.8-3.46,2.5-.5,4.96-.95,12.4-.6,19.55Z"/><path id="bp-shoulder-left" d="M178.47,130.21c0,.25,0,.51.03.77,0,.33.03.66.04.99.03.59.07,1.18.11,1.79.06.75.12,1.51.21,2.28.03.35.07.69.11,1.04.16,1.41.36,2.84.6,4.31.06.37.12.74.19,1.11.32,1.86.72,3.8,1.17,5.79.09.4.18.79.28,1.2.21.87.43,1.76.66,2.66.17.66.35,1.34.54,2.02.62,2.22,1.32,4.51,2.11,6.9v.02c.45,1.37,1.94,2.09,3.29,1.59l22.43-8.3c.99-.37,1.65-1.3,1.66-2.35.07-6.22-.07-16.67-.07-16.75-1.09-23.6-13.21-28.13-26.32-32.36-1.16-.42-2.01-.53-2.71,1.33-.41,1.12-.8,2.25-1.17,3.4-.09.3-.19.6-.28.9-.29.97-.57,1.94-.82,2.93-.1.39-.21.79-.29,1.18-.04.15-.08.3-.11.45-.08.35-.16.69-.23,1.04-.1.48-.21.97-.29,1.45-.08.4-.16.8-.22,1.21-.03.15-.06.3-.08.46-.09.52-.17,1.04-.24,1.56-.09.59-.16,1.18-.22,1.78-.05.44-.09.89-.13,1.34-.04.4-.08.8-.1,1.21-.03.45-.07.9-.09,1.35-.03.59-.06,1.18-.07,1.78-.03,1.29-.03,2.59,0,3.93Z"/><path id="bp-arm-left" d="M196.68,219.84c-.4,11.38,9.56,35.19,15.51,47.48,4.18,8.64,7.01,18.11,8.64,24.54.4,1.6,1.93,2.62,3.56,2.4l8.4-1.16c.89-.12,1.66-.59,2.17-1.3.52-.72.72-1.59.55-2.46-1.94-10.69-6.65-37.44-8.37-55.06-2.26-23.22-9.6-32.71-9.67-32.8-.27-.33-.4-.75-.38-1.17.74-13.09-1.98-26.59-3.78-35.52-.33-1.61-.62-3.07-.85-4.35-.29-1.55-1.9-2.47-3.38-1.92l-20.56,7.6c-1.22.45-1.9,1.75-1.58,3.01,3.16,12.48,10.07,41.58,9.73,50.73Z"/><path id="bp-neck" d="M151.45,88.09c-5.75-3.15-5.59-10.34-5.21-17.52.02-.37-.43-.55-.68-.27-3.01,3.34-6.82,6.06-11.1,7.38-2.38.74-4.95.74-7.33,0-4.28-1.33-8.09-4.04-11.1-7.38-.25-.27-.69-.09-.68.27.38,7.18.54,14.37-5.21,17.52-.32.17-.26.65.09.73,6.64,1.61,13.72,1.95,20.57,2.07,6.84-.12,13.93-.47,20.57-2.07.35-.08.4-.56.09-.73Z"/><path id="bp-knee-left" d="M144,418.61c0,.2,0,.4.03.6.56,6.44,1.04,14.07,1.35,21.51.08,1.89.97,3.65,2.46,4.82,1.48,1.16,3.4,1.62,5.25,1.26l20.42-4.01c2.96-.59,5.15-3.17,5.21-6.13.1-5.07-.26-11.18-1.12-18.71-.38-3.29-3.11-5.76-6.35-5.76h-20.78c-1.84,0-3.53.74-4.76,2.1-1.1,1.2-1.7,2.73-1.7,4.34Z"/><path id="bp-ankle-left" d="M151.83,573.75l18.03.89c.02-.63.03-1.26.05-1.89.04-1.24.08-2.41.04-3.59-.04-1.62-.27-3.33-.71-5.38-.16-.69-.31-1.38-.47-2.07-.19-.81-.38-1.62-.55-2.44-.05-.22-.08-.47-.08-.7v-1.16c0-.59.14-1.65.47-3.62l-14.41,1.16-.52.53c-.16,3.75-.38,7.73-.85,11.65-.24,1.98-.56,4.09-1.01,6.62Z"/><path id="bp-eyes" d="M156.37,27.98h-51.15c-.7,0-1.26.55-1.23,1.2.05,1.14.16,2.3.36,3.47,0,.04,0,.07.02.11.83,3.43,1.82,5.02,2.68,7.8.14.48.63.82,1.17.82h45.14c.54,0,1.03-.34,1.17-.82.85-2.78,1.84-4.37,2.68-7.8,0-.04.02-.07.02-.11.2-1.18.32-2.33.36-3.47.03-.65-.53-1.2-1.23-1.2Z"/></g></svg>