<?xml version="1.0" encoding="UTF-8"?><svg id="Layer_1" xmlns="http://www.w3.org/2000/svg" width="100" height="100" viewBox="0 0 100 100"><path d="M85.36,14.64C65.83-4.88,34.17-4.88,14.64,14.64c-19.52,19.52-19.52,51.19,0,70.71,19.52,19.52,51.19,19.52,70.71,0,19.52-19.52,19.52-51.19,0-70.71ZM19.23,80.77C2.24,63.77,2.24,36.23,19.23,19.23c16.99-16.99,44.54-16.99,61.53,0,16.99,16.99,16.99,44.54,0,61.53-16.99,16.99-44.54,16.99-61.53,0ZM76.03,57.58h-15.95c-1.38,0-2.5,1.12-2.5,2.5v15.95c0,1.38-1.12,2.5-2.5,2.5h-10.17c-1.38,0-2.5-1.12-2.5-2.5v-15.95c0-1.38-1.12-2.5-2.5-2.5h-15.95c-1.38,0-2.5-1.12-2.5-2.5v-10.17c0-1.38,1.12-2.5,2.5-2.5h15.95c1.38,0,2.5-1.12,2.5-2.5v-15.95c0-1.38,1.12-2.5,2.5-2.5h10.17c1.38,0,2.5,1.12,2.5,2.5v15.95c0,1.38,1.12,2.5,2.5,2.5h15.95c1.38,0,2.5,1.12,2.5,2.5v10.17c0,1.38-1.12,2.5-2.5,2.5Z"/></svg>