<?xml version="1.0" encoding="UTF-8"?><svg id="Layer_1" xmlns="http://www.w3.org/2000/svg" width="100" height="100" viewBox="0 0 100 100"><path d="M50,.1c27.57,0,50,22.43,50,50,0,19.81-11.91,37.88-29.9,45.8-1.34.59-2.91-.09-3.42-1.46h0c-.48-1.28.13-2.7,1.38-3.25,16.13-7.11,26.81-23.32,26.81-41.08,0-24.74-20.13-44.86-44.86-44.86S5.14,25.36,5.14,50.1c0,17.77,10.68,33.98,26.81,41.08,1.25.55,1.86,1.97,1.38,3.25h0c-.52,1.37-2.08,2.05-3.42,1.46C11.91,87.98,0,69.91,0,50.1,0,22.53,22.43.1,50,.1ZM52.29,74.64c4.12,0,6.25-2.06,6.4-6.17l1.37-43.89c.15-4.26-1.91-6.4-6.17-6.4h-7.77c-4.27,0-6.33,2.13-6.17,6.4l1.37,43.89c.15,4.11,2.28,6.17,6.4,6.17h4.57ZM40.97,93.61c0,4.2,2.09,6.29,6.29,6.29h5.48c4.19,0,6.29-2.09,6.29-6.29v-4.57c0-4.19-2.1-6.28-6.29-6.28h-5.48c-4.2,0-6.29,2.09-6.29,6.28v4.57Z"/></svg>