<?xml version="1.0" encoding="UTF-8"?><svg id="Layer_1" xmlns="http://www.w3.org/2000/svg" width="100" height="100" viewBox="0 0 100 100"><path d="M92.17,63.8H7.83c-3.2,0-5.51,3.06-4.65,6.14l4.46,26.54c.59,2.08,2.49,3.52,4.65,3.52h75.42c2.16,0,4.06-1.44,4.65-3.52l4.46-26.54c.86-3.08-1.45-6.14-4.65-6.14ZM66.23,87.07c0,1.42-1.15,2.57-2.57,2.57h-27.32c-1.42,0-2.57-1.15-2.57-2.57v-8.4c0-1.42,1.15-2.57,2.57-2.57s2.57,1.15,2.57,2.57v3.25c0,1.42,1.16,2.57,2.58,2.57h17.02c1.42,0,2.58-1.15,2.58-2.57v-3.25c0-1.42,1.15-2.57,2.57-2.57.71,0,1.35.29,1.82.75.46.47.75,1.11.75,1.82v8.4ZM75.04,27.4c.43-.7,1.2-1.13,2.03-1.13h3.43c1.18,0,2.3.77,3.08,2.1l12.01,20.57c1.39,2.38,1.74,5.29.7,7.84-.84,2.04-2.34,3.46-4.12,3.46H7.83c-1.78,0-3.28-1.42-4.12-3.46-1.04-2.55-.69-5.46.7-7.84l12.01-20.57c.78-1.33,1.9-2.1,3.08-2.1h3.43c.83,0,1.6.43,2.03,1.13h0c.98,1.59-.16,3.64-2.03,3.64h-.3c-.95,0-1.83.52-2.28,1.35l-10.76,19.58s-.01.01-.01.02c-.57,1,.22,2.25,1.38,2.25h78.08c1.16,0,1.95-1.25,1.38-2.25,0-.01-.01-.02-.01-.02l-10.76-19.58c-.45-.83-1.33-1.35-2.28-1.35h-.3c-1.87,0-3.01-2.05-2.03-3.64h0ZM79.88,47.91c0,.67-.27,1.27-.7,1.7-.44.43-1.04.7-1.7.7h-24.07c.26-.18.5-.38.73-.61l4.18-4.18h19.16c1.33,0,2.4,1.07,2.4,2.39ZM46.58,50.31h-24.06c-1.33,0-2.4-1.07-2.4-2.4,0-.66.27-1.26.7-1.69.44-.43,1.04-.7,1.7-.7h19.15l4.18,4.18c.23.23.47.43.73.61ZM37.97,41.82h-8.6c-1.33,0-2.4-1.07-2.4-2.4,0-.66.27-1.26.7-1.7.43-.43,1.03-.7,1.7-.7h3.81l4.79,4.8ZM73.03,39.42c0,.66-.27,1.26-.7,1.7-.43.43-1.03.7-1.7.7h-8.61l4.8-4.8h3.81c1.33,0,2.4,1.08,2.4,2.4ZM71.58,27.31l-19.92,19.91c-.92.92-2.42.92-3.34,0l-19.91-19.91c-1.49-1.49-.43-4.03,1.67-4.03h9.98V4.29C40.07,1.92,41.99,0,44.36,0h11.28C58.01,0,59.93,1.92,59.93,4.29v18.98h9.98c2.1,0,3.16,2.54,1.67,4.03Z"/></svg>