<?xml version="1.0" encoding="UTF-8"?><svg id="Layer_1" xmlns="http://www.w3.org/2000/svg" width="100" height="100" viewBox="0 0 100 100"><path d="M88.536,14.345h-10.426v-4.101c0-4.019-3.258-7.276-7.276-7.276h-2.143c-4.018,0-7.276,3.258-7.276,7.276v4.101h-22.833v-4.101c0-4.019-3.258-7.276-7.276-7.276h-2.143c-4.018,0-7.276,3.258-7.276,7.276v4.101h-10.426C5.142,14.345,0,19.487,0,25.808v59.761c0,6.321,5.142,11.464,11.462,11.464h77.074c6.321,0,11.464-5.143,11.464-11.464V25.808c0-6.321-5.143-11.464-11.464-11.464ZM88.63,85.569c0,.051-.042.093-.093.093H11.462c-.051,0-.092-.042-.092-.093V25.808c0-.051.041-.093.092-.093h10.426v4.102c0,4.018,3.258,7.276,7.276,7.276h2.143c4.018,0,7.276-3.258,7.276-7.276v-4.102h22.833v4.102c0,4.018,3.258,7.276,7.276,7.276h2.143c4.018,0,7.276-3.258,7.276-7.276v-4.102h10.426c.051,0,.093.042.093.093v59.761ZM36.986,47.313v6.094c0,2.482-2.012,4.494-4.494,4.494h-8.494c-2.482,0-4.494-2.012-4.494-4.494v-6.094c0-2.482,2.012-4.494,4.494-4.494h8.494c2.482,0,4.494,2.012,4.494,4.494ZM58.741,47.313v6.094c0,2.482-2.012,4.494-4.494,4.494h-8.494c-2.482,0-4.494-2.012-4.494-4.494v-6.094c0-2.482,2.012-4.494,4.494-4.494h8.494c2.482,0,4.494,2.012,4.494,4.494ZM80.495,47.313v6.094c0,2.482-2.012,4.494-4.494,4.494h-8.494c-2.482,0-4.494-2.012-4.494-4.494v-6.094c0-2.482,2.012-4.494,4.494-4.494h8.494c2.482,0,4.494,2.012,4.494,4.494ZM36.986,66.573v6.094c0,2.482-2.012,4.494-4.494,4.494h-8.494c-2.482,0-4.494-2.012-4.494-4.494v-6.094c0-2.482,2.012-4.494,4.494-4.494h8.494c2.482,0,4.494,2.012,4.494,4.494ZM58.741,66.573v6.094c0,2.482-2.012,4.494-4.494,4.494h-8.494c-2.482,0-4.494-2.012-4.494-4.494v-6.094c0-2.482,2.012-4.494,4.494-4.494h8.494c2.482,0,4.494,2.012,4.494,4.494ZM80.495,66.573v6.094c0,2.482-2.012,4.494-4.494,4.494h-8.494c-2.482,0-4.494-2.012-4.494-4.494v-6.094c0-2.482,2.012-4.494,4.494-4.494h8.494c2.482,0,4.494,2.012,4.494,4.494Z"/></svg>