<?xml version="1.0" encoding="UTF-8"?><svg id="Layer_1" xmlns="http://www.w3.org/2000/svg" width="100" height="100" viewBox="0 0 100 100"><path d="M50,40c-8.28,0-15,6.72-15,15s6.72,15,15,15,15-6.72,15-15-6.72-15-15-15h0ZM90,25h-12c-1.76-.08-3.31-1.2-3.94-2.85l-3.1-9.31c-.64-1.65-2.19-2.76-3.95-2.84h-34c-1.65,0-3.43,1.28-3.94,2.84l-3.11,9.31c-.63,1.65-2.18,2.77-3.94,2.85h-12c-5.5,0-10,4.5-10,10v45c0,5.5,4.5,10,10,10h80c5.5,0,10-4.5,10-10v-45c0-5.5-4.5-10-10-10h0ZM50,80c-13.81,0-25-11.19-25-25s11.19-25,25-25,25,11.19,25,25-11.19,25-25,25h0ZM87.5,41c-1.93,0-3.5-1.57-3.5-3.5s1.57-3.5,3.5-3.5,3.5,1.57,3.5,3.5-1.57,3.5-3.5,3.5h0ZM87.5,41"/></svg>