<?xml version="1.0" encoding="UTF-8"?><svg id="Layer_1" xmlns="http://www.w3.org/2000/svg" width="100" height="100" viewBox="0 0 100 100"><path d="M75.57,92.97c-8.12,4.84-17.72,7.45-27.96,6.98C21.82,98.74.96,77.64.03,51.84-.86,27.05,16.32,6.1,39.42,1.12c2.36-.51,4.58,1.32,4.58,3.73v10.7c0,1.67-1.08,3.19-2.69,3.64-13.25,3.74-23.04,15.84-23.3,30.21-.32,17.64,14.11,32.45,31.75,32.58,5.34.04,10.39-1.23,14.84-3.52,1.65-.85,3.66-.51,4.97.81l6.9,6.91c2,2,1.54,5.33-.89,6.78ZM99.29,41.56C95.82,21.15,79.98,4.96,59.76.96c-1.94-.38-3.76,1.08-3.76,3.06v12.08c0,1.42.96,2.64,2.33,3.01,11.33,3.06,20.2,12.2,22.85,23.68.33,1.43,1.58,2.45,3.04,2.45h11.99c1.95,0,3.4-1.76,3.07-3.68ZM73.06,44.21l-6.54-7.07c-.93-1.01-2.5-1.07-3.5-.14l-11.35,10.5c-1.01.93-2.57.87-3.5-.14l-10.5-11.35c-.93-1.01-2.5-1.07-3.5-.14l-7.07,6.54c-1.01.93-1.07,2.5-.14,3.5l20.41,22.06c.93,1.01,2.5,1.07,3.5.14l22.06-20.41c1.01-.93,1.07-2.5.14-3.5ZM90.75,50.52c-3.44,0-6.24,2.79-6.24,6.24s2.79,6.24,6.24,6.24,6.24-2.79,6.24-6.24-2.79-6.24-6.24-6.24ZM81.91,68.27c-3.44,0-6.24,2.79-6.24,6.24s2.79,6.24,6.24,6.24,6.24-2.79,6.24-6.24-2.79-6.24-6.24-6.24Z"/></svg>