<?xml version="1.0" encoding="UTF-8"?><svg id="Layer_1" xmlns="http://www.w3.org/2000/svg" width="100" height="100" viewBox="0 0 100 100"><path d="M50,0C22.39,0,0,22.39,0,50s22.39,50,50,50,50-22.39,50-50S77.61,0,50,0ZM50,93.51c-24.03,0-43.51-19.48-43.51-43.51S25.97,6.49,50,6.49s43.51,19.48,43.51,43.51-19.48,43.51-43.51,43.51ZM71.741,65.247c-1.427,2.035-4.233,2.527-6.268,1.101l-15.522-10.885c-2.787-1.956-4.451-5.156-4.451-8.56v-27.188c0-2.485,2.015-4.5,4.5-4.5h0c2.485,0,4.5,2.015,4.5,4.5v27.188c0,.474.231.919.619,1.191l15.521,10.885c2.035,1.427,2.528,4.233,1.101,6.268h0Z"/></svg>