<?xml version="1.0" encoding="UTF-8"?><svg id="Layer_1" xmlns="http://www.w3.org/2000/svg" width="100" height="100" viewBox="0 0 100 100"><path d="M59.912,99.943l-17.48-18.924H0V8.057h100v72.961h-21.118l-18.97,18.924ZM12.177,68.841h35.584l12.509,13.543,13.575-13.543h13.977V20.235H12.177v48.606ZM28.631,36.552c-4.542,0-8.224,3.682-8.224,8.224s3.682,8.224,8.224,8.224,8.224-3.682,8.224-8.224-3.682-8.224-8.224-8.224ZM50,36.552c-4.542,0-8.224,3.682-8.224,8.224s3.682,8.224,8.224,8.224,8.224-3.682,8.224-8.224-3.682-8.224-8.224-8.224ZM71.369,36.552c-4.542,0-8.224,3.682-8.224,8.224s3.682,8.224,8.224,8.224,8.224-3.682,8.224-8.224-3.682-8.224-8.224-8.224Z"/></svg>