<?xml version="1.0" encoding="UTF-8"?><svg id="Layer_1" xmlns="http://www.w3.org/2000/svg" width="100" height="100" viewBox="0 0 100 100"><path d="M98.033,45.902c-1.212-10.21-5.535-19.562-12.365-26.985-2.369-2.575-6.584-1.996-8.178,1.118h0c-.95,1.856-.668,4.118.745,5.652,5.419,5.883,8.846,13.296,9.808,21.397,1.207,10.166-1.617,20.198-7.953,28.244-.534.677-1.094,1.325-1.666,1.96-.701-.815-1.513-1.537-2.445-2.107,1.781-1.537,2.829-3.774,2.829-6.204,0-4.534-3.688-8.222-8.222-8.222s-8.222,3.688-8.222,8.222c0,2.429,1.048,4.667,2.829,6.204-2.064,1.26-3.599,3.214-4.386,5.476-1.059-1.575-2.449-2.926-4.096-3.931,2.275-1.963,3.614-4.821,3.614-7.925,0-5.791-4.712-10.503-10.503-10.503s-10.503,4.712-10.503,10.503c0,3.103,1.339,5.961,3.614,7.925-1.647,1.006-3.037,2.356-4.096,3.931-.787-2.262-2.322-4.216-4.386-5.476,1.781-1.537,2.829-3.774,2.829-6.204,0-4.534-3.688-8.222-8.222-8.222s-8.222,3.688-8.222,8.222c0,2.429,1.048,4.667,2.829,6.204-.863.527-1.625,1.184-2.291,1.924-11.944-13.388-13.124-33.736-2.046-48.494l4.279,3.574-2.017,21.373c-.091.969.368,1.907,1.19,2.429.352.222.744.353,1.144.391.534.05,1.083-.065,1.561-.349l15.162-8.969c.149-.088.286-.191.41-.302l9.873,8.245c.407.339.901.542,1.417.591.252.024.507.011.761-.041.771-.157,1.428-.656,1.786-1.356L80.687,3.8c.005-.009.009-.017.013-.026l.005-.009c.003-.005.003-.011.006-.017.092-.184.156-.378.202-.578.013-.054.023-.107.032-.162.03-.178.042-.358.034-.54-.001-.03.003-.06,0-.09-.016-.205-.061-.408-.128-.609-.018-.055-.044-.106-.067-.16-.034-.084-.06-.169-.104-.251-.034-.064-.08-.116-.119-.176-.02-.031-.029-.067-.051-.098-.025-.035-.055-.066-.082-.099-.029-.037-.059-.074-.09-.109-.088-.1-.181-.193-.282-.277-.02-.017-.039-.034-.06-.05-.109-.086-.226-.161-.347-.228-.033-.018-.067-.035-.101-.052-.122-.061-.247-.113-.377-.154-.012-.004-.023-.009-.034-.012-.149-.044-.301-.074-.457-.091-.023-.002-.046-.003-.068-.004-.124-.01-.249-.01-.375-.001-.044.003-.088.005-.133.01-.021.003-.043.002-.064.005L4.263,10.394c-1.014.142-1.849.868-2.13,1.852-.281.984.046,2.042.83,2.697l8.64,7.216C-4.471,43.101-.754,73.228,20.041,89.608c8.615,6.788,19.041,10.392,29.844,10.392,1.919-.008,3.864-.117,5.8-.352,12.831-1.517,24.305-7.953,32.308-18.103,7.995-10.149,11.565-22.813,10.04-35.644ZM27.223,48.987l1.206-12.777,8.455,7.061-9.661,5.716ZM51.764,48.952l-21.174-17.683,41.721-22.464-20.547,40.147ZM64.442,7.161L26.309,27.694l-15.549-12.985,53.682-7.547ZM62.457,84.039c0-3.414,2.157-6.487,5.367-7.647.423-.153.713-.543.739-.991.025-.449-.22-.869-.622-1.068-2.057-1.018-3.335-3.07-3.335-5.356,0-3.297,2.682-5.979,5.98-5.979s5.98,2.682,5.98,5.979c0,2.285-1.278,4.338-3.335,5.356-.403.199-.648.62-.622,1.068.025.449.316.839.739.991,1.414.511,2.622,1.393,3.533,2.512-3.946,3.903-8.645,6.867-13.823,8.735-.038-1.23-.245-2.428-.605-3.569,0-.011.006-.02.006-.03ZM22.913,78.732c.893-1.036,2.045-1.856,3.385-2.34.423-.153.713-.543.739-.991.025-.449-.22-.869-.622-1.068-2.057-1.018-3.335-3.07-3.335-5.356,0-3.297,2.682-5.979,5.98-5.979s5.98,2.682,5.98,5.979c0,2.285-1.278,4.338-3.335,5.356-.403.199-.648.62-.622,1.068.026.449.316.839.739.991,3.21,1.16,5.367,4.233,5.367,7.647,0,.011.006.02.006.03-.35,1.107-.556,2.268-.602,3.46-3.675-1.374-7.158-3.318-10.331-5.816-1.189-.937-2.3-1.937-3.347-2.981ZM54.495,89.666c-5.158.612-10.278.182-15.124-1.213.04-.131.067-.268.067-.412,0-4.361,2.755-8.287,6.856-9.768.54-.195.911-.693.944-1.266.032-.573-.281-1.11-.795-1.365-2.628-1.301-4.26-3.922-4.26-6.842,0-4.212,3.426-7.638,7.638-7.638s7.638,3.426,7.638,7.638c0,2.919-1.632,5.541-4.26,6.842-.514.255-.827.791-.795,1.365.033.573.404,1.071.944,1.266,4.101,1.481,6.856,5.407,6.856,9.768,0,.17.035.331.089.483-1.884.522-3.821.908-5.8,1.143Z"/></svg>