<?xml version="1.0" encoding="UTF-8"?><svg id="Layer_1" xmlns="http://www.w3.org/2000/svg" width="100" height="100" viewBox="0 0 100 100"><path d="M32.93,50c0,5.32-4.32,9.64-9.64,9.64s-9.64-4.32-9.64-9.64,4.32-9.64,9.64-9.64,9.64,4.32,9.64,9.64ZM50,40.36c-5.32,0-9.64,4.32-9.64,9.64s4.32,9.64,9.64,9.64,9.64-4.32,9.64-9.64-4.32-9.64-9.64-9.64ZM76.72,40.36c-5.32,0-9.64,4.32-9.64,9.64s4.32,9.64,9.64,9.64,9.64-4.32,9.64-9.64-4.32-9.64-9.64-9.64ZM94.11,73.55c-.77,1.44-.94,3.12-.48,4.68l5.16,17.64c.53,1.81-1.13,3.51-2.95,3.02l-18.43-4.93c-1.49-.4-3.08-.24-4.45.47-7.48,3.87-16.08,5.92-25.18,5.53C22.9,98.87,2.33,79.25.19,54.43-2.44,23.9,22.39-1.54,52.74.07c26.38,1.4,47.33,23.63,47.26,50.05-.02,8.47-2.14,16.45-5.89,23.43ZM50,93.51c24.03,0,43.51-19.47,43.51-43.51S74.03,6.49,50,6.49,6.49,25.97,6.49,50s19.48,43.51,43.51,43.51Z"/></svg>