<?xml version="1.0" encoding="UTF-8"?><svg id="Layer_1" xmlns="http://www.w3.org/2000/svg" width="100" height="100" viewBox="0 0 100 100"><path d="M93.63,33.54h-20.41V6.37c0-3.52-2.85-6.37-6.36-6.37H6.37C2.85,0,0,2.85,0,6.37v60.49c0,3.51,2.85,6.36,6.37,6.36h27.17v20.41c0,3.52,2.85,6.37,6.37,6.37h53.72c3.52,0,6.37-2.85,6.37-6.37v-53.72c0-3.52-2.85-6.37-6.37-6.37ZM11.02,59.56V13.66c0-1.46,1.18-2.64,2.64-2.64h45.91c1.46,0,2.64,1.18,2.64,2.64v45.91c0,1.46-1.18,2.64-2.64,2.64H13.66c-1.46,0-2.64-1.18-2.64-2.64ZM87.36,90h-41.19c-1.46,0-2.64-1.18-2.64-2.64v-14.14h23.32c3.51,0,6.36-2.85,6.36-6.36v-23.32h14.14c1.46,0,2.64,1.18,2.64,2.64v41.19c0,1.46-1.18,2.64-2.64,2.64ZM56.86,13.36H16.63c-1.5.05-2.98,1.81-2.98,3.25v19.31l11.11-6.74c.99-.51,1.92-.38,2.85.16,2.41,1.4,4.77,4.16,7.19,5.69,1.41.71,2.16,0,3.08-.95,2.93-3,5.48-6.78,8.42-9.76,1.43-1.45,2.8-2.08,4.59-.6l8.69,11.55V15.81c0-.76-1.81-2.57-2.72-2.46ZM22.35,25.07c-2.16,0-3.92-1.75-3.92-3.92s1.75-3.91,3.92-3.91,3.91,1.75,3.91,3.91-1.75,3.92-3.91,3.92Z"/></svg>