<?xml version="1.0" encoding="UTF-8"?><svg id="Layer_1" xmlns="http://www.w3.org/2000/svg" width="100" height="100" viewBox="0 0 100 100"><path d="M97.11,27.61h0c3.85-3.85,3.85-10.12,0-13.97l-12.16-12.16c-3.86-3.85-10.12-3.85-13.97,0l-10.81,10.81,26.13,26.13,10.81-10.81ZM77.47,7.97c.27-.27.72-.27,1,0l12.16,12.15c.28.28.28.72,0,1l-4.32,4.32-13.15-13.15,4.32-4.32ZM12.14,98.33l15.89-3.72c1.79-.43,3.42-1.34,4.72-2.63l49.54-49.55-26.13-26.13L6.62,65.85c-1.32,1.32-2.23,2.96-2.64,4.74l-3.71,15.86c-.79,3.36.19,6.82,2.63,9.25,1.88,1.88,4.38,2.9,6.96,2.9.76,0,1.53-.09,2.29-.27ZM69.31,42.43l-43.06,43.06c-.1.1-.22.16-.34.19l-15.87,3.71c-.1.02-.38.09-.66-.19-.28-.28-.21-.57-.18-.67l3.71-15.88c.03-.12.09-.22.19-.32L56.16,29.28l13.15,13.15Z"/></svg>