<?xml version="1.0" encoding="UTF-8"?><svg id="Layer_1" xmlns="http://www.w3.org/2000/svg" width="100" height="100" viewBox="0 0 100 100"><path d="M75.57,92.97c-8.12,4.84-17.72,7.45-27.96,6.98C21.82,98.74.96,77.64.03,51.84-.86,27.05,16.32,6.1,39.42,1.12c2.36-.51,4.58,1.32,4.58,3.73v10.7c0,1.67-1.08,3.19-2.69,3.64-13.25,3.74-23.04,15.84-23.3,30.21-.32,17.64,14.11,32.45,31.75,32.58,5.34.04,10.39-1.23,14.84-3.52,1.65-.85,3.66-.51,4.97.81l6.9,6.91c2,2,1.54,5.33-.89,6.78Z"/><path d="M98.52,62.11c-1.4,5.63-3.75,10.88-6.88,15.57-1.39,2.08-4.34,2.36-6.11.59l-7.3-7.3c-1.26-1.26-1.55-3.23-.64-4.77,1.15-1.95,2.1-4.04,2.82-6.22.54-1.62,2.01-2.75,3.71-2.75h10.53c2.56,0,4.48,2.39,3.87,4.87Z"/><path d="M96.21,45.24h-11.99c-1.46,0-2.71-1.02-3.04-2.45-2.66-11.48-11.52-20.63-22.85-23.68-1.37-.37-2.33-1.59-2.33-3.01V4.01c0-1.98,1.82-3.44,3.76-3.06,20.22,4,36.06,20.19,39.53,40.6.33,1.92-1.12,3.68-3.07,3.68Z"/></svg>