<?xml version="1.0" encoding="UTF-8"?><svg id="Layer_1" xmlns="http://www.w3.org/2000/svg" width="100" height="100" viewBox="0 0 100 100"><path d="M15.642,86.697c0,7.347,5.956,13.303,13.303,13.303h42.109c7.347,0,13.303-5.956,13.303-13.303l3-57.8H12.642l3,57.8ZM77.879,37.896l-2.509,48.334-.012.233v.233c0,2.373-1.93,4.303-4.303,4.303H28.946c-2.373,0-4.303-1.931-4.303-4.303v-.233l-.012-.233-2.509-48.334h55.757ZM89.649,16.056h-21.992V3.907c0-2.158-1.749-3.907-3.907-3.907h-27.499c-2.158,0-3.907,1.749-3.907,3.907v12.149H10.351c-2.603,0-4.713,2.11-4.713,4.713s2.11,4.713,4.713,4.713h79.297c2.603,0,4.713-2.11,4.713-4.713s-2.11-4.713-4.713-4.713ZM41.844,9.501h16.311v5.99h-16.311v-5.99ZM34.383,75.576v-23.073c0-3.263,2.646-5.909,5.909-5.909s5.909,2.646,5.909,5.909v23.073c0,3.263-2.646,5.909-5.909,5.909s-5.909-2.646-5.909-5.909ZM53.799,75.576v-23.073c0-3.263,2.646-5.909,5.909-5.909s5.909,2.646,5.909,5.909v23.073c0,3.263-2.646,5.909-5.909,5.909s-5.909-2.646-5.909-5.909Z"/></svg>