<?xml version="1.0" encoding="UTF-8"?><svg id="Layer_1" xmlns="http://www.w3.org/2000/svg" width="100" height="100" viewBox="0 0 100 100"><path d="M100,41.08v47.46c0,6.33-5.13,11.46-11.46,11.46H11.46c-6.33,0-11.46-5.13-11.46-11.46v-47.46c0-3.14,2.55-5.68,5.68-5.68h0c3.14,0,5.68,2.55,5.68,5.68v43.02c0,2.5,2.03,4.53,4.53,4.53h68.19c2.5,0,4.53-2.03,4.53-4.53v-43.02c0-3.14,2.55-5.68,5.68-5.68h0c3.14,0,5.68,2.55,5.68,5.68Z"/><path d="M82.79,41.49l-30.26,30.25c-1.4,1.4-3.67,1.4-5.07,0l-30.25-30.25c-2.26-2.26-.66-6.12,2.54-6.12h15.17V6.52c0-3.6,2.92-6.52,6.52-6.52h17.13c3.6,0,6.52,2.92,6.52,6.52v28.84h15.17c3.2,0,4.8,3.86,2.54,6.12Z"/></svg>