<?xml version="1.0" encoding="UTF-8"?><svg id="Layer_1" xmlns="http://www.w3.org/2000/svg" width="100" height="100" viewBox="0 0 100 100"><path d="M82.613,100H17.387c-9.602,0-17.387-7.784-17.387-17.387V17.387C0,7.785,7.785,0,17.387,0h36.695C57.425,0,60.134,2.709,60.134,6.052h0c0,3.342-2.709,6.052-6.052,6.052H17.387c-2.918,0-5.283,2.365-5.283,5.283v65.226c0,2.918,2.365,5.283,5.283,5.283h65.226c2.918,0,5.283-2.365,5.283-5.283v-33.134c0-3.342,2.709-6.052,6.052-6.052h0c3.342,0,6.052,2.709,6.052,6.052v33.134c0,9.602-7.784,17.387-17.387,17.387ZM97.765,22.445h.001c2.978-2.98,2.978-7.828,0-10.809l-9.403-9.403c-2.982-2.977-7.829-2.978-10.807.002l-8.361,8.36,20.21,20.21,8.36-8.36ZM82.574,7.252c.212-.212.559-.212.771,0l9.402,9.402c.213.213.213.561,0,.774l-3.342,3.342-10.174-10.174,3.344-3.343ZM32.04,77.144l12.29-2.875c1.385-.331,2.646-1.036,3.648-2.037l38.322-38.324-20.21-20.21L27.767,52.022c-1.018,1.018-1.725,2.291-2.04,3.666l-2.869,12.267c-.611,2.597.148,5.272,2.032,7.156,1.456,1.456,3.384,2.24,5.381,2.24.587,0,1.181-.068,1.77-.206ZM76.265,33.909l-33.306,33.305c-.075.076-.169.127-.264.15l-12.277,2.872c-.073.015-.297.069-.511-.143-.213-.213-.161-.439-.142-.517l2.873-12.286c.021-.091.069-.173.147-.25l33.305-33.305,10.174,10.174Z"/></svg>