<?xml version="1.0" encoding="UTF-8"?><svg id="Layer_1" xmlns="http://www.w3.org/2000/svg" width="100" height="100" viewBox="0 0 100 100"><path d="M95.41,29.08c-1.01-2.22-2.19-4.35-3.52-6.38-5.27-8.06-12.8-14.51-21.69-18.45-.42-.19-.86-.27-1.28-.27-1.71,0-3.25,1.39-3.25,3.26,0,1.27.74,2.43,1.91,2.95,7.84,3.47,14.47,9.18,19.05,16.33.33.51.25,1.19-.19,1.62l-26.24,26.24-4.95,4.95-4.33,4.34c-.51.51-1.34.51-1.85,0l-4.33-4.34-4.95-4.95L13.55,28.14c-.43-.43-.51-1.11-.18-1.63,4.13-6.44,9.92-11.7,16.75-15.22,1.07-.55,1.73-1.66,1.73-2.86,0-2.45-2.59-3.99-4.77-2.87-7.71,3.98-14.25,9.91-18.96,17.14-1.33,2.02-2.51,4.15-3.53,6.37C1.43,35.9-.23,43.56.03,51.64c.37,11.64,4.8,22.31,11.88,30.64,1.52,1.78,3.16,3.45,4.9,5,8.83,7.87,20.42,12.68,33.02,12.72,12.83.04,24.54-4.75,33.42-12.66,1.74-1.55,3.38-3.23,4.89-5.01,7.4-8.71,11.86-20,11.86-32.33,0-7.47-1.64-14.56-4.59-20.92ZM6.73,54.6c-.67-6.57.11-12.87,2.07-18.63.31-.92,1.48-1.2,2.17-.51l22.96,22.96c.51.51.51,1.33,0,1.84l-16.42,16.42c-.55.55-1.46.51-1.94-.11-4.82-6.21-7.99-13.76-8.84-21.97ZM46.68,93.39c-9.12-.67-17.51-4.22-24.24-9.74-.59-.48-.62-1.38-.08-1.92l16.51-16.51c.51-.51,1.33-.51,1.84,0l8.36,8.36c.51.51,1.34.51,1.84,0l8.36-8.36c.51-.51,1.33-.51,1.84,0l16.52,16.52c.54.54.51,1.44-.08,1.92-8.29,6.81-19.14,10.6-30.89,9.73ZM82.5,76.69l-16.43-16.43c-.51-.51-.51-1.33,0-1.84l22.95-22.95c.69-.69,1.85-.41,2.16.51,1.5,4.4,2.32,9.12,2.32,14.03,0,10.01-3.38,19.23-9.07,26.58-.48.62-1.39.66-1.94.11Z"/><path d="M73.42,29.64l-21.61,21.61c-1,1-2.62,1-3.62,0l-21.61-21.61c-1.61-1.61-.47-4.37,1.81-4.37h10.83V4.66C39.22,2.09,41.31,0,43.88,0h12.24C58.69,0,60.78,2.09,60.78,4.66v20.6h10.83c2.28,0,3.43,2.76,1.81,4.37Z"/></svg>