<?xml version="1.0" encoding="UTF-8"?><svg id="Layer_1" xmlns="http://www.w3.org/2000/svg" width="100" height="100" viewBox="0 0 100 100"><path d="M50,0C22.39,0,0,22.39,0,50s22.39,50,50,50,50-22.39,50-50S77.61,0,50,0ZM50,93.51c-24.03,0-43.51-19.48-43.51-43.51S25.97,6.49,50,6.49s43.51,19.48,43.51,43.51-19.48,43.51-43.51,43.51ZM73.77,36.95l-11.28,11.28c-.97.97-.97,2.55,0,3.53l11.28,11.28c.97.97.97,2.55,0,3.53l-7.19,7.19c-.97.97-2.55.97-3.53,0l-11.28-11.28c-.97-.97-2.55-.97-3.53,0l-11.28,11.28c-.97.97-2.55.97-3.53,0l-7.19-7.19c-.97-.97-.97-2.55,0-3.53l11.28-11.28c.97-.97.97-2.55,0-3.53l-11.28-11.28c-.97-.97-.97-2.55,0-3.53l7.19-7.19c.97-.97,2.55-.97,3.53,0l11.28,11.28c.97.97,2.55.97,3.53,0l11.28-11.28c.97-.97,2.55-.97,3.53,0l7.19,7.19c.97.97.97,2.55,0,3.53Z"/></svg>