<?xml version="1.0" encoding="UTF-8"?><svg id="Layer_2" xmlns="http://www.w3.org/2000/svg" width="241.659" height="139.79" viewBox="0 0 241.659 139.79"><g id="Layer_1-2"><path d="M239.576,63.126C212.868,23.603,168.472,0,120.824,0S28.789,23.599,2.083,63.126c-2.776,4.108-2.777,9.418,0,13.528,26.711,39.533,71.101,63.136,118.742,63.136s92.041-23.603,118.753-63.137c2.776-4.109,2.775-9.419,0-13.527ZM120.829,125.381c-30.595,0-55.485-24.891-55.485-55.486S90.234,14.409,120.829,14.409s55.486,24.891,55.486,55.485-24.891,55.486-55.486,55.486ZM11.197,70.497c-.245-.363-.245-.851,0-1.213C27.369,45.348,50.563,27.739,77.021,18.454c-14.552,12.411-23.806,30.861-23.806,51.441s9.252,39.026,23.801,51.438c-26.454-9.288-49.646-26.898-65.819-50.835ZM230.462,70.496c-16.172,23.935-39.362,41.544-65.815,50.833,14.547-12.411,23.797-30.858,23.797-51.434s-9.252-39.026-23.802-51.438c26.457,9.286,49.65,26.894,65.82,50.827h0c.244.362.244.85,0,1.212ZM154.944,69.892c0,18.84-15.28,34.11-34.12,34.11-18.55,0-33.65-14.82-34.1-33.27,3.09,2.15,6.86,3.41,10.91,3.41,10.59,0,19.18-8.59,19.18-19.18,0-7-3.75-13.12-9.35-16.46,4.11-1.75,8.62-2.72,13.36-2.72,18.84,0,34.12,15.27,34.12,34.11Z"/></g></svg>