<?xml version="1.0" encoding="UTF-8"?><svg id="Layer_1" xmlns="http://www.w3.org/2000/svg" width="100" height="100" viewBox="0 0 100 100"><path d="M100,43.27c0-6.37-4.26-11.73-10-13.25V7.97c0-1.09-.53-2.11-1.42-2.73-.89-.62-2.04-.77-3.05-.4L29.41,25.36H12.5c-6.89,0-12.5,5.61-12.5,12.5v11.67c0,4.79,2.71,8.95,6.67,11.05v31.45c0,1.84,1.49,3.33,3.33,3.33h13.33c1.84,0,3.33-1.49,3.33-3.33v-30h2.77l56.13,19.67c.36.13.73.19,1.1.19.68,0,1.36-.21,1.93-.61.88-.62,1.4-1.64,1.4-2.72v-22.04c5.74-1.53,10-6.88,10-13.25ZM6.67,37.86c0-3.22,2.62-5.83,5.83-5.83h14.17v23.33h-14.17c-3.22,0-5.83-2.62-5.83-5.83v-11.67ZM20,88.7h-6.67v-26.67h6.67v26.67ZM83.33,73.86l-50-17.52v-25.31l50-18.29v61.12ZM90,49.35v-12.17c1.99,1.22,3.33,3.49,3.33,6.09s-1.34,4.87-3.33,6.08ZM69.58,24.22c.63,1.73-.26,3.64-1.98,4.28l-16.24,5.94c-.38.14-.77.21-1.15.21-1.36,0-2.64-.84-3.13-2.19-.63-1.73.26-3.64,1.98-4.28l16.24-5.94c1.73-.63,3.64.25,4.28,1.98Z"/></svg>