<?xml version="1.0" encoding="UTF-8"?><svg id="Layer_1" xmlns="http://www.w3.org/2000/svg" width="100" height="100" viewBox="0 0 100 100"><path d="M61.39,97.86h0ZM79.11,50.59c0,10.95-6.08,20.51-15.04,25.48v3.5c0,1.68-1.36,3.04-3.04,3.04l-22.05,2.43c-1.69,0-3.05-1.37-3.05-3.05v-5.92c-8.96-4.97-15.04-14.53-15.04-25.48,0-16.05,13.06-29.11,29.11-29.11s29.11,13.06,29.11,29.11ZM72.82,50.59c0-12.58-10.24-22.81-22.82-22.81s-22.82,10.23-22.82,22.81,10.24,22.82,22.82,22.82,22.82-10.24,22.82-22.82ZM61.02,85.04l-22.05,2.42c-1.68,0-3.05,1.36-3.05,3.05h0c0,4.73,3.83,8.56,8.56,8.56h11.02c4.73,0,8.56-6.25,8.56-10.98h0c0-1.68-1.36-3.05-3.05-3.05ZM52.77,12.93V3.71c0-1.53-1.24-2.77-2.77-2.77h0c-1.53,0-2.77,1.24-2.77,2.77v9.23c0,1.53,1.24,2.77,2.77,2.77h0c1.53,0,2.77-1.24,2.77-2.77ZM88,53.71h9.23c1.53,0,2.77-1.24,2.77-2.77h0c0-1.53-1.24-2.77-2.77-2.77h-9.23c-1.53,0-2.77,1.24-2.77,2.77h0c0,1.53,1.24,2.77,2.77,2.77ZM2.77,53.71h9.23c1.53,0,2.77-1.24,2.77-2.77h0c0-1.53-1.24-2.77-2.77-2.77H2.77c-1.53,0-2.77,1.24-2.77,2.77h0c0,1.53,1.24,2.77,2.77,2.77ZM74.91,79.77l6.53,6.53c1.08,1.08,2.83,1.08,3.92,0h0c1.08-1.08,1.08-2.83,0-3.92l-6.53-6.53c-1.08-1.08-2.83-1.08-3.92,0h0c-1.08,1.08-1.08,2.83,0,3.92ZM14.64,19.5l6.53,6.53c1.08,1.08,2.83,1.08,3.92,0h0c1.08-1.08,1.08-2.83,0-3.92l-6.53-6.53c-1.08-1.08-2.83-1.08-3.92,0h0c-1.08,1.08-1.08,2.83,0,3.92ZM78.83,26.02l6.53-6.53c1.08-1.08,1.08-2.83,0-3.92h0c-1.08-1.08-2.83-1.08-3.92,0l-6.53,6.53c-1.08,1.08-1.08,2.83,0,3.92h0c1.08,1.08,2.83,1.08,3.92,0ZM18.56,86.29l6.53-6.53c1.08-1.08,1.08-2.83,0-3.92h0c-1.08-1.08-2.83-1.08-3.92,0l-6.53,6.53c-1.08,1.08-1.08,2.83,0,3.92h0c1.08,1.08,2.83,1.08,3.92,0Z"/></svg>