<?xml version="1.0" encoding="UTF-8"?><svg id="Layer_1" xmlns="http://www.w3.org/2000/svg" width="100" height="100" viewBox="0 0 100 100"><path d="M0,84.622c.23,7.271,5.54,12.826,12.8,13.341l61.066.009c7.672-.489,11.717-5.792,13.588-12.738,4.773-17.711,7.863-36.243,12.428-54.045.866-6.903-3.079-13.201-9.687-15.289-18.851-4.013-37.505-9.23-56.386-13.072-1.979-.403-3.783-.906-5.829-.782-5.781.353-10.751,4.246-12.475,9.743-1.318,4.207-1.873,8.909-3.073,13.173-4.149.612-7.887,2.472-10.186,6.057-1.466,2.285-2.091,4.761-2.244,7.467M78.998,84.996c-.151,2.605-2.343,4.898-4.946,5.135H12.79c-1.195-.11-2.539-.726-3.38-1.567-.842-.84-1.458-2.185-1.568-3.382v-47.442c.239-2.607,2.539-4.799,5.137-4.948h60.884c2.741.237,4.898,2.396,5.135,5.135v47.069ZM87.048,52.527c-.078.248-.064.568-.4.626-.065-.543.17-1.048.194-1.58.17-3.944.22-8.976,0-12.899-.459-8.18-5.54-13.291-13.724-13.724l-52.756.006c1.008-3.339,1.395-7.079,2.399-10.389.963-3.184,3.43-5.025,6.819-4.711,18.652,4.69,37.72,8.113,56.323,12.953,3.839.999,6.41,2.414,6.341,6.909-2.061,7.291-2.928,15.657-5.196,22.81ZM0,84.622c.23,7.271,5.54,12.826,12.8,13.341l61.066.009c7.672-.489,11.717-5.792,13.588-12.738,4.773-17.711,7.863-36.243,12.428-54.045.866-6.903-3.079-13.201-9.687-15.289-18.851-4.013-37.505-9.23-56.386-13.072-1.979-.403-3.783-.906-5.829-.782-5.781.353-10.751,4.246-12.475,9.743-1.318,4.207-1.873,8.909-3.073,13.173-4.149.612-7.887,2.472-10.186,6.057-1.466,2.285-2.091,4.761-2.244,7.467v46.135ZM78.998,84.996c-.151,2.605-2.343,4.898-4.946,5.135H12.79c-1.195-.11-2.539-.726-3.38-1.567-.842-.84-1.458-2.185-1.568-3.382v-47.442c.239-2.607,2.539-4.799,5.137-4.948h60.884c2.741.237,4.898,2.396,5.135,5.135v47.069ZM87.048,52.527c-.078.248-.064.568-.4.626-.065-.543.17-1.048.194-1.58.17-3.944.22-8.976,0-12.899-.459-8.18-5.54-13.291-13.724-13.724l-52.756.006c1.008-3.339,1.395-7.079,2.399-10.389.963-3.184,3.43-5.025,6.819-4.711,18.652,4.69,37.72,8.113,56.323,12.953,3.839.999,6.41,2.414,6.341,6.909-2.061,7.291-2.928,15.657-5.196,22.81ZM71.804,35.6l-56.586-.007c-2.112.075-4.194,2.56-4.194,4.582v27.168l15.627-9.487c1.395-.713,2.7-.538,4.005.22,3.389,1.97,6.707,5.854,10.113,7.997,1.989.995,3.038-.013,4.336-1.343,4.119-4.218,7.708-9.532,11.849-13.732,2.015-2.043,3.932-2.92,6.453-.842l12.223,16.252v-27.355c0-1.068-2.541-3.609-3.826-3.454ZM23.275,52.084c-3.042,0-5.508-2.467-5.508-5.508s2.467-5.506,5.508-5.506,5.506,2.465,5.506,5.506-2.465,5.508-5.506,5.508Z"/></svg>