<?xml version="1.0" encoding="UTF-8"?><svg id="Layer_1" xmlns="http://www.w3.org/2000/svg" width="100" height="100" viewBox="0 0 100 100"><path d="M50,0C22.38,0,0,22.39,0,50s22.38,50,50,50,50-22.38,50-50S77.61,0,50,0ZM50,93.51c-24.03,0-43.51-19.47-43.51-43.51S25.97,6.49,50,6.49s43.51,19.48,43.51,43.51-19.48,43.51-43.51,43.51ZM41.49,39.92c0-3.6,1.8-5.41,5.41-5.41h6.2c3.6,0,5.41,1.8,5.41,5.41v39.82c0,3.61-1.8,5.41-5.41,5.41h-6.2c-3.61,0-5.41-1.8-5.41-5.41v-39.82ZM47.1,28.12c-3.61,0-5.41-1.8-5.41-5.41v-2.46c0-3.6,1.8-5.41,5.41-5.41h5.8c3.61,0,5.41,1.8,5.41,5.41v2.46c0,3.61-1.8,5.41-5.41,5.41h-5.8Z"/></svg>