<?xml version="1.0" encoding="UTF-8"?><svg id="Layer_1" xmlns="http://www.w3.org/2000/svg" width="100" height="100" viewBox="0 0 100 100"><path d="M99.01,40.11C95.05,20.46,79.55,4.96,59.9.99c-.04,0-.07-.01-.11-.02C56.62.34,53.35,0,50,0s-6.63.34-9.8.98c-.03,0-.06.01-.09.01C20.46,4.95,4.95,20.46.99,40.11c0,.04-.01.07-.02.1-.63,3.17-.97,6.43-.97,9.78s.34,6.62.97,9.78c0,.04.01.07.02.1,3.89,19.31,18.95,34.6,38.13,38.88.19.07.39.11.59.15,3.33.7,6.77,1.08,10.3,1.08s6.97-.38,10.3-1.08c.2-.04.39-.08.58-.15,19.17-4.28,34.24-19.57,38.13-38.88,0-.04.01-.07.02-.11.63-3.17.97-6.43.97-9.78s-.34-6.62-.97-9.78c0-.04-.01-.07-.02-.11ZM7.69,50c0-2.25.23-4.44.57-6.59,6.14-1.83,14.02-3.24,22.82-4.07-.18,3.53-.3,7.09-.3,10.65s.12,7.12.3,10.65c-8.79-.82-16.67-2.23-22.81-4.07-.34-2.15-.57-4.34-.57-6.59ZM38.8,61.19c-.21-3.71-.34-7.45-.34-11.19s.14-7.48.34-11.19c7.4-.41,14.97-.41,22.39,0,.21,3.71.34,7.45.34,11.19s-.14,7.48-.34,11.19c-7.4.41-14.97.41-22.39,0ZM68.93,39.35c8.79.82,16.67,2.23,22.81,4.07.34,2.15.57,4.34.57,6.59s-.23,4.44-.57,6.59c-6.14,1.83-14.02,3.24-22.82,4.07.18-3.53.3-7.09.3-10.65s-.12-7.12-.3-10.65ZM89.45,34.83c-6.09-1.47-13.2-2.56-21.03-3.24-.68-7.83-1.78-14.95-3.24-21.03,11.13,4.3,19.98,13.15,24.27,24.27ZM56.59,8.26c1.83,6.13,3.24,14.02,4.06,22.82-7.06-.36-14.26-.36-21.31,0,.82-8.79,2.23-16.68,4.06-22.82,2.15-.34,4.34-.57,6.59-.57s4.44.23,6.59.57ZM34.83,10.55c-1.47,6.08-2.56,13.2-3.24,21.03-7.83.68-14.95,1.77-21.03,3.24,4.3-11.13,13.15-19.98,24.27-24.27ZM10.55,65.17c6.09,1.47,13.2,2.56,21.03,3.24.68,7.83,1.78,14.95,3.24,21.03-11.13-4.3-19.98-13.15-24.27-24.27ZM43.41,91.74c-1.83-6.13-3.24-14.02-4.06-22.81,3.53.18,7.09.3,10.66.3s7.12-.12,10.65-.3c-.82,8.79-2.23,16.68-4.06,22.81-2.15.34-4.34.57-6.59.57s-4.44-.23-6.59-.57ZM65.17,89.45c1.47-6.08,2.56-13.2,3.24-21.03,7.83-.68,14.95-1.77,21.03-3.24-4.3,11.13-13.15,19.98-24.27,24.27Z"/></svg>