<?xml version="1.0" encoding="UTF-8"?><svg id="Layer_1" xmlns="http://www.w3.org/2000/svg" width="100" height="100" viewBox="0 0 100 100"><path d="M53.79,34.01l-15.84-12.94c3.59-1.94,7.69-3.04,12.05-3.04,8.09,0,15.29,3.79,19.95,9.69-2.96,1.08-7.88,2.98-16.16,6.29ZM83.06,13.69c-18.26-18.25-47.86-18.25-66.12,0C-1.31,31.94-1.31,61.54,16.94,79.8c.69.68,1.39,1.34,2.1,1.96.76.68,1.53,1.32,2.33,1.94l-1.48,8.69c-.68,3.98,2.39,7.61,6.43,7.61h16.57l-.37-2.56-2.26-15.85-1.97-13.8c.96-.51,1.95-.96,2.99-1.34,1.13-.41,2.08-1.29,2.37-2.47.4-1.63-.39-3.25-1.82-3.97-4.57-2.25-7.9-6.16-9.41-10.82-.21-.64-.39-1.3-.52-1.98-2.22.9-4.4,1.79-6.51,2.65,1.28,4.97,4.04,9.42,7.94,12.79-4.04,2.46-7.44,5.78-10.01,9.66h0s0,.02,0,.02c-.71,1.07-1.36,2.17-1.94,3.31-.04-.04-.09-.08-.14-.13-15.88-15.89-15.88-41.64,0-57.53,15.9-15.89,41.64-15.89,57.54,0,15.88,15.89,15.88,41.64,0,57.53-.05.05-.1.09-.14.13-2.67-5.32-6.8-9.85-11.96-12.99,5.51-4.76,8.75-11.68,8.75-19.19,0-2.08-.24-4.12-.74-6.06-.54-2.22-1.37-4.33-2.45-6.29-1.58.58-3.84,1.45-6.58,2.53.72,1.13,1.31,2.34,1.76,3.61.7,1.95,1.08,4.03,1.08,6.21,0,1.99-.32,3.92-.91,5.73-1.51,4.66-4.84,8.57-9.41,10.82-1.43.72-2.22,2.34-1.82,3.97.29,1.18,1.24,2.06,2.37,2.47,6.62,2.44,11.75,7.52,14.4,13.77.3.71.57,1.42.8,2.15.62,1.93,2.99,2.66,4.59,1.43.84-.65,1.65-1.33,2.45-2.04.71-.62,1.41-1.28,2.1-1.96,18.25-18.26,18.25-47.86,0-66.11ZM48.78,36.02l-14.91-12.18c-1.78,1.45-3.36,3.15-4.68,5.04l12.34,10.08c2.62-1.07,5.03-2.04,7.25-2.94ZM25.32,37.4c-.5,1.94-.75,3.98-.75,6.06,0,.8.04,1.59.12,2.37,4.32-1.77,8.25-3.38,11.85-4.84l-9.73-7.95c-.62,1.39-1.12,2.85-1.49,4.36ZM55.56,81.59h-11.42l2.26,15.85h9.16c4.38,0,7.93-3.54,7.93-7.92,0-2.19-.89-4.17-2.32-5.61-1.44-1.43-3.42-2.32-5.61-2.32Z"/></svg>