<?xml version="1.0" encoding="UTF-8"?><svg id="Layer_1" xmlns="http://www.w3.org/2000/svg" width="100" height="100" viewBox="0 0 100 100"><path d="M34.16,26.81l-2.55-2.55c-5.27-5.27-13.86-5.77-19.39-.77-5.91,5.35-6.07,14.52-.5,20.09l22.66,22.66c3.75,3.75,9.13,4.9,13.87,3.45.79-.24,1.55-.55,2.29-.93,1.24-.64,2.4-1.48,3.44-2.51.85-.85,1.56-1.77,2.14-2.76.41-.7.76-1.44,1.04-2.18,1.84-4.93.78-10.71-3.18-14.67l-6.44-6.44c-1.27-1.27-1.34-3.34-.1-4.64.06-.06.11-.12.17-.18.3-.3.61-.58.93-.84,1.32-1.06,3.25-.94,4.45.26l6.41,6.41c6.99,6.99,8.16,17.63,3.51,25.85-.38.67-.8,1.33-1.26,1.96-.67.93-1.42,1.81-2.25,2.65-1.02,1.02-2.11,1.91-3.27,2.68-.66.44-1.34.84-2.03,1.2-8.11,4.21-18.36,2.91-25.16-3.89L6.67,49.38c-8.25-8.25-8.88-21.68-.95-30.23,8.34-8.99,22.44-9.19,31.03-.6l2.84,2.84c1.33,1.33,1.31,3.49-.06,4.78-.19.18-.38.36-.57.55,0,0-.02.02-.02.02-1.33,1.33-3.46,1.39-4.79.06ZM45.88,24.45c-.69.36-1.37.76-2.03,1.2-1.16.77-2.25,1.67-3.27,2.68-.83.83-1.58,1.72-2.25,2.64-.46.63-.88,1.29-1.26,1.96-4.65,8.21-3.48,18.86,3.51,25.85l6.41,6.41c1.2,1.2,3.12,1.33,4.45.26.32-.26.63-.54.93-.84.06-.06.12-.12.17-.18,1.24-1.3,1.17-3.37-.1-4.64l-6.44-6.44c-3.96-3.96-5.01-9.73-3.18-14.66.28-.75.62-1.49,1.04-2.19.58-.99,1.29-1.91,2.14-2.76,1.04-1.04,2.2-1.88,3.44-2.51.74-.38,1.51-.69,2.29-.93,4.75-1.45,10.13-.3,13.87,3.45l22.66,22.66c5.57,5.57,5.4,14.73-.5,20.09-5.52,5.01-14.11,4.51-19.39-.76l-2.55-2.55c-1.33-1.33-3.46-1.27-4.78.06,0,0-.02.02-.03.03-.19.19-.38.37-.57.55-1.37,1.28-1.38,3.45-.06,4.78l2.85,2.85c8.59,8.59,22.7,8.39,31.03-.6s7.3-21.99-.95-30.23l-22.28-22.28c-6.8-6.8-17.05-8.09-25.16-3.88Z"/></svg>