<?xml version="1.0" encoding="UTF-8"?><svg id="Layer_1" xmlns="http://www.w3.org/2000/svg" width="100" height="100" viewBox="0 0 100 100"><rect x="34.78" y="42.46" width="65.22" height="15.09" rx="7.54" ry="7.54"/><rect x="34.78" y="6.7" width="65.22" height="15.09" rx="7.54" ry="7.54"/><path d="M14.24,6c4.54,0,8.24,3.7,8.24,8.24s-3.7,8.24-8.24,8.24-8.24-3.7-8.24-8.24,3.7-8.24,8.24-8.24M14.24,0C6.37,0,0,6.37,0,14.24s6.37,14.24,14.24,14.24,14.24-6.37,14.24-14.24S22.1,0,14.24,0h0Z"/><path d="M14.24,41.76c4.54,0,8.24,3.7,8.24,8.24s-3.7,8.24-8.24,8.24-8.24-3.7-8.24-8.24,3.7-8.24,8.24-8.24M14.24,35.76c-7.86,0-14.24,6.37-14.24,14.24s6.37,14.24,14.24,14.24,14.24-6.37,14.24-14.24-6.37-14.24-14.24-14.24h0Z"/><rect x="34.78" y="78.22" width="65.22" height="15.09" rx="7.54" ry="7.54"/><path d="M14.24,77.52c4.54,0,8.24,3.7,8.24,8.24s-3.7,8.24-8.24,8.24-8.24-3.7-8.24-8.24,3.7-8.24,8.24-8.24M14.24,71.52c-7.86,0-14.24,6.37-14.24,14.24s6.37,14.24,14.24,14.24,14.24-6.37,14.24-14.24-6.37-14.24-14.24-14.24h0Z"/></svg>