<?xml version="1.0" encoding="UTF-8"?><svg id="Layer_2" xmlns="http://www.w3.org/2000/svg" width="87.528" height="100" viewBox="0 0 87.528 100"><g id="Layer_1-2"><path d="M79.959,31.478h-2.63C76.209,13.932,61.599,0,43.764,0S11.301,13.932,10.182,31.478h-2.63c-4.174,0-7.551,3.377-7.551,7.551v53.402c0,4.174,3.377,7.568,7.551,7.568h72.408c4.175,0,7.568-3.394,7.568-7.568v-53.402c0-4.174-3.394-7.551-7.568-7.551ZM57.186,64.517c-1.324,2.461-3.309,4.497-5.685,5.905v12.371c0,4.276-3.462,7.738-7.738,7.738-2.138,0-4.073-.865-5.481-2.257-1.392-1.408-2.257-3.343-2.257-5.481v-12.371c-2.393-1.408-4.361-3.445-5.685-5.905-1.171-2.138-1.833-4.599-1.833-7.212,0-1.816.305-3.547.882-5.159,2.121-5.888,7.755-10.097,14.373-10.097s12.235,4.208,14.356,10.097c.577,1.612.899,3.343.899,5.159,0,2.613-.662,5.074-1.833,7.212ZM20.431,31.478c1.103-11.912,11.149-21.246,23.333-21.246s22.213,9.333,23.316,21.246H20.431Z"/></g></svg>