<?xml version="1.0" encoding="UTF-8"?><svg id="Layer_1" xmlns="http://www.w3.org/2000/svg" width="100" height="100" viewBox="0 0 100 100"><path d="M100,50c0,27.666-22.482,50.092-50.17,50C23.098,99.911.883,78.361.026,51.642-.616,31.609,10.536,14.102,27.074,5.562c2.173-1.122,4.766.422,4.766,2.868h0c0,1.201-.659,2.312-1.727,2.862C14.825,19.161,4.8,35.823,6.726,54.6c2.13,20.763,19.135,37.241,39.95,38.787,25.532,1.896,46.834-18.257,46.834-43.386,0-17.779-10.655-33.057-25.931-39.81-1.165-.515-1.909-1.676-1.909-2.949v-.003c0-2.33,2.396-3.926,4.528-2.983,17.554,7.764,29.802,25.33,29.802,45.746ZM56.767,55.915V6.767c0-3.737-3.03-6.767-6.767-6.767h0c-3.737,0-6.767,3.03-6.767,6.767v49.148c0,3.737,3.03,6.767,6.767,6.767h0c3.737,0,6.767-3.03,6.767-6.767Z"/></svg>