<?xml version="1.0" encoding="UTF-8"?><svg id="Layer_1" xmlns="http://www.w3.org/2000/svg" width="100" height="100" viewBox="0 0 100 100"><path d="M79.97,96.23c-1.72.98-3.74,1.59-6.1,1.74H12.8c-7.26-.52-12.57-6.08-12.8-13.35v-46.13c.15-2.71.78-5.18,2.24-7.47,1.72-2.69,4.25-4.4,7.16-5.36l7.13,7.13h-3.55c-2.6.15-4.9,2.34-5.14,4.95v47.44c.11,1.2.73,2.54,1.57,3.38.84.84,2.19,1.46,3.38,1.57h61.08l6.1,6.1ZM28.45,44.71c.21.58.33,1.21.33,1.87,0,3.04-2.46,5.5-5.51,5.5s-5.5-2.46-5.5-5.5,2.46-5.51,5.5-5.51c.66,0,1.29.11,1.87.33l-5.81-5.81h-4.11c-2.11.08-4.2,2.56-4.2,4.58v27.17l15.63-9.48c1.4-.72,2.7-.54,4.01.22,3.39,1.97,6.7,5.85,10.11,7.99,1.99,1,3.04-.01,4.33-1.34.55-.57,1.09-1.15,1.62-1.75l-18.27-18.27ZM71.8,35.6h-19.94l23.77,23.77v-20.32c0-1.06-2.54-3.6-3.83-3.45ZM90.19,15.9c-18.85-4.01-37.5-9.23-56.38-13.07-1.98-.4-3.79-.91-5.83-.78-2.63.15-5.1,1.05-7.17,2.5l5.69,5.69c.91-.36,1.94-.49,3.08-.39,18.65,4.7,37.72,8.12,56.32,12.96,3.84,1,6.41,2.41,6.34,6.91-2.06,7.29-2.92,15.65-5.19,22.81-.08.24-.07.56-.4.62-.07-.54.17-1.05.19-1.58.17-3.94.22-8.97,0-12.9-.46-8.18-5.54-13.29-13.72-13.72h-31.9s7.83,7.84,7.83,7.84h24.81c2.74.24,4.9,2.4,5.14,5.14v24.81l11.26,11.26c3.33-14.22,6.02-28.74,9.62-42.81.87-6.9-3.08-13.2-9.69-15.29ZM98.2,89.33l-10.71-10.71-45.19-45.19-7.55-7.55-10.73-10.73-5.51-5.51L10.7,1.84c-2.45-2.45-6.42-2.45-8.87,0h0c-2.45,2.45-2.45,6.42,0,8.87l22.73,22.73,2.7,2.7,22.71,22.71,27.24,27.24,5.33,5.33,6.78,6.78c2.45,2.45,6.42,2.45,8.87,0h0c2.45-2.45,2.45-6.42,0-8.87Z"/></svg>