<?xml version="1.0" encoding="UTF-8"?><svg id="Layer_1" xmlns="http://www.w3.org/2000/svg" width="100" height="100" viewBox="0 0 100 100"><path d="M12.18,20.23v48.61h5.03c1.23,0,1.85,1.49.98,2.36l-9.41,9.41c-.26.26-.61.41-.98.41H0V8.06h77.99c1.23,0,1.85,1.49.98,2.36l-9.4,9.4c-.26.26-.61.41-.98.41H12.18ZM97.64,12.97l-9.41,9.41c-.26.26-.41.61-.41.98v45.48h-13.97l-13.58,13.54-12.51-13.54h-5.42c-.37,0-.72.15-.98.41l-9.41,9.41c-.87.87-.25,2.36.98,2.36h9.5l17.48,18.92,18.97-18.92h21.12V13.95c0-1.23-1.49-1.85-2.36-.98ZM17.07,91.54L98.22,10.39c2.38-2.38,2.38-6.23,0-8.61h0c-2.38-2.38-6.23-2.38-8.61,0L8.46,82.93c-2.38,2.38-2.38,6.23,0,8.61h0c2.38,2.38,6.23,2.38,8.61,0Z"/></svg>