<?xml version="1.0" encoding="UTF-8"?><svg id="Layer_1" xmlns="http://www.w3.org/2000/svg" width="100" height="100" viewBox="0 0 100 100"><path d="M0,70.56v-3.5c.51-5.74,2.74-11.16,6.56-15.5L43.17,14.95c4.84-4.84,10.7-8,17.54-9.2,31.48-5.54,53.09,32.67,30.39,55.26l-25.74,25.61c-4.01,3.99-10.41-2.19-6.5-6.88l24.87-24.73c3.97-3.95,6.42-9.3,6.75-14.99,1.28-21.86-24.4-33.59-40.23-18.61-12.54,11.86-24.11,24.83-36.63,36.72-9.99,11.91.11,29.82,15.65,27.02,5.76-1.04,8.15-4.32,12.03-8.09,8.54-8.31,16.92-16.82,25.37-25.24,7.3-9.57-4.66-21.01-13.94-12.81-6.12,5.4-11.62,12.15-17.68,17.69-4.68,3.96-10.55-1.92-6.99-6.49,6.34-5.85,12.13-12.86,18.54-18.57,12.93-11.51,32.87-1.58,31.75,15.63-.38,5.8-3.86,10.81-8.19,14.42l-25.86,25.87C28.49,103.37,1.37,92.79,0,70.56Z"/></svg>