<?xml version="1.0" encoding="UTF-8"?><svg id="Layer_1" xmlns="http://www.w3.org/2000/svg" width="100" height="100" viewBox="0 0 100 100"><path d="M72,34.06v-12.71c0-3.17-2.57-5.74-5.74-5.74h-32.51c-3.18,0-5.75,2.58-5.75,5.75v12.69c0,1.77.85,3.48,2.25,4.56l7.99,6.13c3,2.3,3,6.83,0,9.13l-7.99,6.13c-1.4,1.07-2.25,2.78-2.25,4.55v12.71c0,3.18,2.58,5.75,5.75,5.75h32.49c3.18,0,5.75-2.58,5.75-5.75v-12.71c0-1.77-.84-3.48-2.25-4.55l-7.99-6.13c-3-2.3-3-6.83,0-9.13l7.99-6.13c1.41-1.08,2.25-2.78,2.25-4.56ZM64.93,66.97v6.49c0,1.38-1.12,2.5-2.5,2.5h-24.86c-1.38,0-2.5-1.12-2.5-2.5v-6.49c0-1.1.51-2.13,1.38-2.8l11.4-8.75c1.27-.97,3.03-.97,4.3,0l11.39,8.74c.87.67,1.38,1.7,1.38,2.8ZM63.55,34.46l-11.39,8.74c-1.27.97-3.03.97-4.3,0l-11.4-8.75c-.87-.67-1.38-1.7-1.38-2.8v-6.48c0-1.38,1.12-2.5,2.5-2.5h24.86c1.38,0,2.5,1.12,2.5,2.5v6.48c0,1.1-.51,2.13-1.38,2.8ZM60.66,67.24v3.77c0,1.18-1.06,2.14-2.36,2.14h-16.61c-1.3,0-2.36-.96-2.36-2.14v-3.77c0-.67.34-1.29.92-1.7l8.31-5.8c.85-.59,2.02-.59,2.87,0l8.31,5.8c.58.41.92,1.03.92,1.7ZM100.03,51.01c-.56,27.66-23.49,49.63-51.17,48.98C22.14,99.36.36,77.37.04,50.63-.19,30.59,11.31,13.31,28.02,5.11c2.2-1.08,4.76.52,4.71,2.96h0c-.02,1.2-.71,2.3-1.78,2.83C15.49,18.46,5.14,34.91,6.68,53.73c1.71,20.8,18.38,37.62,39.16,39.58,25.49,2.41,47.19-17.31,47.7-42.43.36-17.77-9.99-33.27-25.12-40.32-1.15-.54-1.87-1.71-1.85-2.99h0c.05-2.33,2.48-3.88,4.59-2.89,17.39,8.12,29.29,25.93,28.87,46.34ZM53.16,3.61c-.23,1.75-1.84,2.97-3.58,2.74s-2.97-1.84-2.74-3.58S48.68-.2,50.42.03s2.97,1.84,2.74,3.58ZM42.8,4.61c-.23,1.75-1.84,2.97-3.58,2.74s-2.97-1.84-2.74-3.58,1.84-2.97,3.58-2.74,2.97,1.84,2.74,3.58ZM63.52,4.61c-.23,1.75-1.84,2.97-3.58,2.74s-2.97-1.84-2.74-3.58,1.84-2.97,3.58-2.74,2.97,1.84,2.74,3.58Z"/></svg>