<?xml version="1.0" encoding="UTF-8"?><svg id="Layer_1" xmlns="http://www.w3.org/2000/svg" width="100" height="100" viewBox="0 0 100 100"><path d="M50,0C22.39,0,0,22.39,0,50s22.39,50,50,50,50-22.39,50-50S77.61,0,50,0ZM50,93.51c-24.03,0-43.51-19.48-43.51-43.51S25.97,6.49,50,6.49s43.51,19.48,43.51,43.51-19.48,43.51-43.51,43.51ZM43.159,73.951l-19.837-22.208c-1.656-1.854-1.496-4.7.358-6.357l6.092-5.441c1.854-1.656,4.7-1.496,6.357.359l5.61,6.28c1.916,2.145,5.324,1.968,7.008-.364l14.301-19.807c1.455-2.016,4.27-2.47,6.285-1.015l6.622,4.781c2.016,1.455,2.47,4.27,1.015,6.285l-26.803,37.123c-1.684,2.332-5.092,2.509-7.008.364Z" fill="#606060"/></svg>