<?xml version="1.0" encoding="UTF-8"?><svg id="Layer_1" xmlns="http://www.w3.org/2000/svg" width="100" height="100" viewBox="0 0 100 100"><path d="M50,0C22.39,0,0,22.39,0,50s22.39,50,50,50,50-22.39,50-50S77.61,0,50,0ZM50,93.51c-24.03,0-43.51-19.48-43.51-43.51S25.97,6.49,50,6.49s43.51,19.48,43.51,43.51-19.48,43.51-43.51,43.51ZM43.16,73.95l-19.84-22.21c-1.66-1.85-1.5-4.7.36-6.36l6.09-5.44c1.85-1.66,4.7-1.5,6.36.36l5.61,6.28c1.92,2.14,5.32,1.97,7.01-.36l14.3-19.81c1.46-2.02,4.27-2.47,6.29-1.01l6.62,4.78c2.02,1.46,2.47,4.27,1.01,6.29l-26.8,37.12c-1.68,2.33-5.09,2.51-7.01.36Z"/></svg>