<?xml version="1.0" encoding="UTF-8"?><svg id="Layer_1" xmlns="http://www.w3.org/2000/svg" width="100" height="100" viewBox="0 0 100 100"><path d="M66.64,60.28l-13.05-9.16c-.33-.23-.52-.6-.52-1v-22.86c0-1.04-.42-1.99-1.11-2.67-.68-.68-1.63-1.11-2.67-1.11-2.09,0-3.78,1.7-3.78,3.78v22.86c0,2.87,1.4,5.56,3.74,7.2l13.05,9.16c1.72,1.19,4.07.78,5.27-.92,1.2-1.72.79-4.07-.92-5.27ZM66.64,60.28l-13.05-9.16c-.33-.23-.52-.6-.52-1v-22.86c0-1.04-.42-1.99-1.11-2.67-.68-.68-1.63-1.11-2.67-1.11-2.09,0-3.78,1.7-3.78,3.78v22.86c0,2.87,1.4,5.56,3.74,7.2l13.05,9.16c1.72,1.19,4.07.78,5.27-.92,1.2-1.72.79-4.07-.92-5.27ZM66.64,60.28l-13.05-9.16c-.33-.23-.52-.6-.52-1v-22.86c0-1.04-.42-1.99-1.11-2.67-.68-.68-1.63-1.11-2.67-1.11-2.09,0-3.78,1.7-3.78,3.78v22.86c0,2.87,1.4,5.56,3.74,7.2l13.05,9.16c1.72,1.19,4.07.78,5.27-.92,1.2-1.72.79-4.07-.92-5.27ZM99.96,51.95c-.98,25.91-22.1,47.03-48.01,48.01C23.45,101.05,0,78.26,0,50c0-1.81.1-3.59.28-5.35.2-1.83,1.93-3.09,3.73-2.78l.11.02c1.67.29,2.79,1.83,2.61,3.51-.16,1.51-.24,3.05-.24,4.6,0,24.59,20.4,44.42,45.21,43.48,22.55-.86,40.92-19.23,41.78-41.78.94-24.81-18.89-45.21-43.48-45.21-10.68,0-20.45,3.85-28.03,10.23h5.73c2.12,0,3.85,1.72,3.85,3.84v.93c0,2.12-1.73,3.85-3.85,3.85h-15.02c-2.12,0-3.84-1.73-3.84-3.85V6.47c0-2.12,1.72-3.85,3.84-3.85h.93c2.12,0,3.84,1.72,3.84,3.85v5.59C26.2,4.54,37.57,0,50,0c28.26,0,51.05,23.45,49.96,51.95Z"/></svg>