<?xml version="1.0" encoding="UTF-8"?><svg id="Layer_1" xmlns="http://www.w3.org/2000/svg" width="100" height="100" viewBox="0 0 100 100"><path d="M98.06,33.17c-1.71-1.72-3.73-3.73-5.9-5.9l-18.76-18.76c-1.25-1.25-2.94-1.95-4.71-1.95h-28.36c-7.27.23-12.83,5.54-13.34,12.8v17.46H9.04C4.07,36.82.02,40.87.02,45.84v22.73c0,4.97,4.05,9.01,9.02,9.01h17.94v2.85c.44,6.93,4.81,10.89,10.77,12.97,0,0,43.94.1,48.53,0,6.91-.15,11.62-3.99,13.18-10.1.29-1.12.47-2.33.54-3.62v-41.82c0-1.76-.69-3.44-1.94-4.69ZM9.04,72.58c-2.21,0-4.02-1.8-4.02-4.01v-22.73c0-2.21,1.81-4.02,4.02-4.02h66.95c2.21,0,4.02,1.81,4.02,4.02v22.73c0,2.21-1.81,4.01-4.02,4.01H9.04ZM92.16,80.42c-.24,2.74-2.4,4.9-5.14,5.14h-47.07c-2.6-.15-4.89-2.34-5.13-4.95v-3.03h41.17c4.97,0,9.02-4.04,9.02-9.01v-22.73c0-4.97-4.05-9.02-9.02-9.02h-41.17v-17.47c.11-1.19.73-2.54,1.57-3.38s2.18-1.46,3.38-1.57h31.68v8.28h.01c.62,4.15,2.47,7.89,6.06,10.19,2.29,1.46,4.76,2.09,7.47,2.24h7.17v45.31ZM28.52,47.81c-1.43-1.24-3.56-1.86-6.41-1.86h-6.64c-.64,0-1.16.52-1.16,1.16v20.21c0,.64.52,1.16,1.16,1.16h3.77c.64,0,1.16-.52,1.16-1.16v-5.16c0-.64.52-1.16,1.16-1.16h.55c2.73,0,4.84-.69,6.32-2.06,1.48-1.37,2.23-3.31,2.23-5.83,0-2.29-.71-4.06-2.14-5.3ZM23.69,55.26c-.54.51-1.27.77-2.18.77h-1.11v-4.02c0-.64.52-1.16,1.16-1.16h.41c1.68,0,2.53.76,2.53,2.28,0,.9-.27,1.61-.81,2.13ZM41.54,68.47c3.75,0,6.66-1.02,8.73-3.05,2.07-2.03,3.1-4.93,3.1-8.69,0-3.49-.98-6.16-2.95-8.01-1.97-1.85-4.76-2.77-8.37-2.77h-6.64c-.64,0-1.16.52-1.16,1.16v20.21c0,.64.52,1.16,1.16,1.16h6.13ZM40.33,52.01c0-.64.52-1.16,1.16-1.16h.62c1.66,0,2.9.5,3.72,1.49.82,1,1.22,2.53,1.22,4.59,0,2.21-.43,3.85-1.29,4.92-.86,1.07-2.22,1.61-4.07,1.61h-.2c-.64,0-1.16-.52-1.16-1.16v-10.3ZM57.41,67.31v-20.21c0-.64.52-1.16,1.16-1.16h11c.64,0,1.16.52,1.16,1.16v2.57c0,.64-.52,1.16-1.16,1.16h-5c-.64,0-1.16.52-1.16,1.16v1.98c0,.64.52,1.16,1.16,1.16h4.43c.64,0,1.16.52,1.16,1.16v2.57c0,.64-.52,1.16-1.16,1.16h-4.43c-.64,0-1.16.52-1.16,1.16v6.14c0,.64-.52,1.16-1.16,1.16h-3.68c-.64,0-1.16-.52-1.16-1.16Z"/></svg>