<?xml version="1.0" encoding="UTF-8"?><svg id="Layer_1" xmlns="http://www.w3.org/2000/svg" width="100" height="100" viewBox="0 0 100 100"><path d="M99.652,39.121c-1.045,3.061-4.76,5.728-6.934,7.902-6.76,6.762-13.211,14.466-20.569,20.575-4.529,3.76-10.731,1.357-11.174-4.632-.232-3.136-.123-6.344-.049-9.525h-25.32c-1.852,0-3.417-1.57-3.417-3.417,0-4.063.166-8.161,0-12.22-.002-.052.006-.09.008-.137-.064.087-.135.178-.234.286-.995,1.089-2.097,2.098-3.14,3.141-6.141,6.143-12.282,12.286-18.423,18.429-.914.914-2.303,1.917-3.011,3.012-.248.383-.371.476-.434.473.517,1.601,4.39,4.311,5.463,5.384,6.04,6.042,12.08,12.084,18.12,18.125.421.421,1.087,1.398,1.691,1.841.087-.471-.041-1.231-.041-1.626v-10.812c0-1.852,1.57-3.417,3.417-3.417h21.798c4.405,0,4.398,6.835,0,6.835h-18.242c.249,3.905.652,8.23-.45,11.625-1.874,5.77-8.149,5.071-11.719,1.674-7.572-7.205-14.802-14.806-22.191-22.198-2.609-2.61-5.885-5.37-4.454-9.563,1.045-3.061,4.76-5.728,6.934-7.902,6.76-6.762,13.211-14.467,20.569-20.575,4.529-3.761,10.731-1.357,11.174,4.632.233,3.153.123,6.377.049,9.574h25.32c1.852,0,3.417,1.57,3.417,3.417,0,4.048-.164,8.129,0,12.174.002.051-.006.088-.008.133.064-.087.135-.178.234-.286.994-1.089,2.097-2.098,3.14-3.141,6.141-6.143,12.282-12.286,18.423-18.429.914-.914,2.303-1.917,3.011-3.012.248-.383.371-.476.434-.473-.517-1.602-4.39-4.311-5.463-5.384-6.04-6.042-12.08-12.084-18.12-18.125-.421-.421-1.087-1.398-1.691-1.841-.087.471.041,1.231.041,1.626v10.812c0,1.852-1.57,3.417-3.417,3.417h-21.798c-4.405,0-4.398-6.835,0-6.835h18.242c-.249-3.905-.652-8.23.45-11.625,1.874-5.77,8.149-5.071,11.719-1.674,7.572,7.205,14.802,14.806,22.191,22.198,2.609,2.61,5.885,5.37,4.454,9.563Z"/></svg>