<?xml version="1.0" encoding="UTF-8"?><svg id="Layer_1" xmlns="http://www.w3.org/2000/svg" width="100" height="100" viewBox="0 0 100 100"><circle cx="50" cy="50" r="50" fill="#f1f1f1"/><circle cx="50" cy="50" r="43.51"/><path d="M15.21,50.13c.05,12.99,7.01,24.15,17.41,30.1.41.24.67.67.67,1.14h0c0,1.02-1.11,1.66-1.99,1.15-10.5-6.08-17.85-17.12-18.75-29.83-1.06-15.2,6.99-28.68,19.23-35.5.92-.51,2.05.15,2.05,1.2,0,.5-.27.95-.71,1.19-10.71,5.97-17.96,17.42-17.91,30.55Z" fill="#fff"/><path d="M87.54,50c0,13.9-7.59,26.05-18.85,32.54-.88.51-1.98-.14-1.98-1.15v-.12c0-.47.26-.9.66-1.14,10.41-6.02,17.42-17.28,17.42-30.14s-7.24-24.47-17.91-30.42c-.44-.24-.71-.69-.71-1.19,0-.8.66-1.37,1.38-1.37.22,0,.45.05.66.17,11.52,6.41,19.33,18.72,19.33,32.81Z" fill="#fff"/><path d="M50,40.34c-3.43,0-6.65-1.66-9.04-4.68-2.34-2.94-3.62-6.84-3.62-10.98v-10.42c0-.67.34-1.27.92-1.61.58-.34,1.27-.35,1.85-.02.98.55,2.13.84,3.33.84,2.09,0,4.03-.9,5.06-2.35.35-.49.91-.78,1.51-.78h0c.6,0,1.17.29,1.51.78,1.03,1.45,2.97,2.35,5.06,2.35,1.2,0,2.35-.29,3.33-.84h0c.58-.33,1.27-.32,1.85.02.58.34.92.94.92,1.61v10.42c0,4.14-1.29,8.04-3.62,10.98-2.4,3.02-5.61,4.68-9.04,4.68ZM39.59,14.9v9.78c0,7.39,4.67,13.41,10.41,13.41s10.41-6.01,10.41-13.41v-9.78c-1.17.54-2.49.82-3.84.82s-2.77-.31-3.98-.89c-1.02-.49-1.91-1.17-2.59-1.99-.68.81-1.57,1.49-2.59,1.99-1.21.58-2.58.89-3.98.89s-2.67-.28-3.84-.82Z" fill="#fff"/><polygon points="49.72 33.33 42.34 25.06 45.9 21.88 49.33 25.72 54.95 17.94 58.82 20.73 49.72 33.33" fill="#fff"/><path d="M33.05,53.44c0,.68-.17,1.28-.52,1.81-.34.53-.84.93-1.49,1.23-.65.29-1.41.44-2.28.44-.73,0-1.34-.05-1.83-.15-.49-.1-1.01-.28-1.54-.53v-2.63c.56.29,1.15.51,1.76.68.61.16,1.17.24,1.68.24.44,0,.76-.08.96-.23s.31-.35.31-.59c0-.15-.04-.28-.12-.39s-.21-.23-.4-.34c-.18-.11-.67-.35-1.45-.7-.71-.32-1.25-.64-1.6-.94s-.62-.65-.79-1.05c-.17-.39-.26-.86-.26-1.4,0-1.01.37-1.79,1.1-2.35.73-.56,1.74-.85,3.02-.85,1.13,0,2.29.26,3.46.79l-.91,2.28c-1.02-.47-1.9-.7-2.65-.7-.38,0-.66.07-.84.2-.17.13-.26.3-.26.5,0,.21.11.41.33.58s.82.48,1.81.93c.94.42,1.6.88,1.96,1.36.37.49.55,1.1.55,1.83Z" fill="#fff"/><path d="M40.1,56.76l-.56-1.12h-.06c-.39.49-.79.82-1.2,1-.41.18-.94.27-1.58.27-.8,0-1.43-.24-1.88-.72s-.69-1.15-.69-2.02.31-1.57.94-2.02c.63-.44,1.54-.69,2.73-.74l1.41-.04v-.12c0-.7-.34-1.05-1.03-1.05-.62,0-1.4.21-2.36.63l-.85-1.93c.99-.51,2.23-.76,3.74-.76,1.09,0,1.93.27,2.52.81.6.54.89,1.29.89,2.26v5.56h-2.03ZM37.93,54.85c.35,0,.66-.11.91-.34.25-.22.38-.52.38-.88v-.66l-.67.03c-.96.04-1.44.39-1.44,1.06,0,.52.28.78.83.78Z" fill="#fff"/><path d="M49.29,50.48h-1.8v6.28h-2.92v-6.28h-1.12v-1.44l1.18-.72v-.14c0-1.12.23-1.92.68-2.41.46-.49,1.19-.73,2.19-.73.39,0,.76.03,1.1.09.35.06.75.16,1.21.31l-.63,1.89c-.36-.1-.71-.15-1.05-.15-.22,0-.39.07-.49.21-.1.14-.15.36-.15.67v.22h1.8v2.19Z" fill="#fff"/><path d="M54.53,56.91c-1.41,0-2.51-.38-3.29-1.12s-1.17-1.82-1.17-3.2.36-2.53,1.08-3.29c.72-.77,1.75-1.15,3.1-1.15s2.26.33,2.96,1,1.04,1.62,1.04,2.88v1.3h-5.23c.02.47.19.84.52,1.11s.77.4,1.33.4c.51,0,.99-.05,1.42-.15.43-.1.9-.26,1.4-.5v2.1c-.46.23-.93.4-1.42.49-.49.09-1.07.13-1.75.13ZM54.36,50.13c-.34,0-.63.11-.86.33-.23.22-.37.56-.41,1.02h2.51c-.01-.41-.13-.74-.35-.98s-.52-.37-.89-.37Z" fill="#fff"/><path d="M64.05,54.6c.39,0,.87-.1,1.41-.29v2.13c-.39.17-.77.29-1.12.36s-.77.11-1.25.11c-.98,0-1.69-.24-2.12-.72-.43-.48-.65-1.22-.65-2.22v-3.49h-1.02v-1.19l1.3-.92.75-1.78h1.92v1.7h2.08v2.19h-2.08v3.3c0,.55.26.82.79.82Z" fill="#fff"/><path d="M65.92,48.29h3.08l1.44,4.86c.07.25.12.56.14.92h.06c.04-.34.1-.65.18-.91l1.47-4.88h2.98l-3.35,9.01c-.43,1.15-.96,1.96-1.58,2.43-.63.47-1.44.71-2.45.71-.39,0-.79-.04-1.2-.13v-2.3c.26.06.57.09.9.09.26,0,.49-.05.68-.15s.36-.24.51-.42c.14-.18.3-.48.46-.89l-3.33-8.35Z" fill="#fff"/><path d="M33.5,71.05h-2.91v-10.93h6.46v2.37h-3.55v2.09h3.28v2.37h-3.28v4.11Z" fill="#fff"/><path d="M41.6,71.05h-2.92v-11.63h2.92v11.63Z" fill="#fff"/><path d="M49.16,71.05l-.56-1.12h-.06c-.39.49-.79.82-1.2,1-.41.18-.94.27-1.58.27-.8,0-1.43-.24-1.88-.72s-.69-1.15-.69-2.02.31-1.57.94-2.02c.63-.44,1.54-.69,2.73-.74l1.41-.04v-.12c0-.7-.34-1.05-1.03-1.05-.62,0-1.4.21-2.36.63l-.85-1.93c.99-.51,2.23-.76,3.74-.76,1.09,0,1.93.27,2.52.81.6.54.89,1.29.89,2.26v5.56h-2.03ZM46.99,69.14c.35,0,.66-.11.91-.34.25-.22.38-.52.38-.88v-.66l-.67.03c-.96.04-1.44.39-1.44,1.06,0,.52.28.78.83.78Z" fill="#fff"/><path d="M59.71,68.45c0,.91-.31,1.59-.93,2.06s-1.51.7-2.66.7c-.63,0-1.17-.03-1.64-.1-.46-.07-.94-.19-1.42-.37v-2.34c.45.2.95.36,1.49.49.54.13,1.02.19,1.45.19.63,0,.95-.14.95-.43,0-.15-.09-.28-.27-.4s-.69-.34-1.54-.68c-.78-.32-1.32-.68-1.63-1.09-.31-.41-.46-.92-.46-1.54,0-.79.3-1.4.91-1.84.61-.44,1.47-.66,2.58-.66.56,0,1.08.06,1.57.18.49.12,1,.3,1.53.54l-.79,1.88c-.39-.17-.8-.32-1.23-.44s-.79-.18-1.06-.18c-.48,0-.72.12-.72.35,0,.14.08.27.25.37s.65.31,1.45.62c.59.25,1.04.48,1.33.72.29.23.51.51.64.83.14.32.21.7.21,1.15Z" fill="#fff"/><path d="M66.67,71.05v-4.62c0-1.14-.34-1.71-1.01-1.71-.48,0-.83.2-1.06.6-.23.4-.34,1.07-.34,2v3.72h-2.92v-11.63h2.92v1.65c0,.75-.04,1.6-.12,2.56h.13c.28-.44.61-.75.99-.93.38-.18.83-.27,1.34-.27.95,0,1.68.27,2.21.82.53.55.79,1.31.79,2.29v5.51h-2.94Z" fill="#fff"/><circle cx="50" cy="86.12" r="3.83" fill="#ed1c24"/><circle cx="38.42" cy="84.12" r="3.83" fill="#fddf00"/><circle cx="61.58" cy="84.12" r="3.83" fill="#00a651"/></svg>