<?xml version="1.0" encoding="UTF-8"?><svg id="Layer_1" xmlns="http://www.w3.org/2000/svg" width="100" height="100" viewBox="0 0 100 100"><path d="M60.5,69.1h-18.29c-.83,0-1.54-.29-2.12-.87-.58-.58-.88-1.29-.88-2.13s.29-1.51.88-2.11c.58-.59,1.29-.89,2.12-.89h6.14v-22.39h-6.07c-.83,0-1.54-.3-2.13-.89-.58-.59-.87-1.3-.87-2.11s.29-1.55.87-2.16c.58-.61,1.29-.91,2.13-.91h9.14c.83,0,1.54.3,2.12.91.58.61.88,1.33.88,2.16v25.39h6c.83,0,1.55.29,2.16.87.61.58.91,1.29.91,2.12s-.3,1.54-.89,2.13c-.6.58-1.3.87-2.11.87ZM48.28,19.06h3.14c.83,0,1.54.29,2.12.88.58.58.88,1.29.88,2.12v2.57c0,.83-.29,1.55-.88,2.16-.58.61-1.29.91-2.12.91h-3.21c-.86,0-1.58-.31-2.16-.93-.58-.62-.86-1.31-.84-2.07l.07-2.64c0-.83.29-1.54.88-2.12.58-.58,1.29-.88,2.12-.88ZM95.99,8.28H4.01c-2.21,0-4.01,1.8-4.01,4.01v67.2c0,2.21,1.79,4,4,4h18.74c1.78,0,3.22,1.44,3.22,3.22v1.09c0,2.19-1.78,3.97-3.97,3.97s-4.01.85-5.39,2.23-2.23,3.28-2.23,5.39v.61h71.26v-.61c0-4.21-3.41-7.62-7.62-7.62-1.09,0-2.09-.45-2.81-1.16-.72-.72-1.16-1.71-1.16-2.81v-1.09c0-1.78,1.44-3.22,3.22-3.22h18.73c2.21,0,4.01-1.8,4.01-4.01V12.29c0-2.21-1.8-4.01-4.01-4.01ZM40.56,76.49c-13.07-4.04-22.58-16.23-22.58-30.6s9.51-26.57,22.58-30.61h18.88c13.07,4.04,22.58,16.24,22.58,30.61s-9.51,26.56-22.58,30.6h-18.88ZM10.6,76.49c-1.99,0-3.6-1.61-3.6-3.59V18.88c0-1.99,1.61-3.6,3.6-3.6h15.68c1.64,0,2.37,2.05,1.1,3.1-7.94,6.54-13.01,16.45-13.01,27.51s5.07,20.97,13.01,27.5c1.27,1.04.54,3.1-1.1,3.1h-15.68ZM93,72.9c0,1.98-1.61,3.59-3.6,3.59h-15.68c-1.64,0-2.37-2.05-1.1-3.1,7.94-6.54,13.01-16.44,13.01-27.5s-5.07-20.97-13.01-27.51c-1.27-1.04-.54-3.1,1.1-3.1h15.68c1.99,0,3.6,1.61,3.6,3.6v54.02Z"/></svg>