<?xml version="1.0" encoding="UTF-8"?><svg id="Layer_1" xmlns="http://www.w3.org/2000/svg" width="100" height="100" viewBox="0 0 100 100"><path d="M82.39,84.04l-3.78-8.92c-.51-1.21-.37-2.6.37-3.69l1.37-1.99c.75-1.08,1.99-1.71,3.31-1.67l9.7.34c1.87.07,3.51-1.22,3.9-3.05l2.03-9.51c.39-1.83-.59-3.67-2.32-4.37l-9.02-3.66c-1.22-.49-2.1-1.58-2.34-2.87l-.44-2.38c-.24-1.29.2-2.62,1.16-3.52l7.12-6.64c1.37-1.27,1.62-3.34.6-4.91l-5.28-8.15c-1.02-1.57-3.01-2.18-4.73-1.45l-8.95,3.79c-1.21.51-2.6.37-3.69-.37l-1.99-1.37c-1.08-.75-1.71-1.99-1.67-3.31l.34-9.75c.07-1.87-1.22-3.51-3.04-3.9l-9.49-2.03c-1.83-.39-3.67.59-4.38,2.32l-3.66,9.04c-.49,1.22-1.58,2.1-2.87,2.34l-2.38.44c-1.29.24-2.62-.2-3.52-1.16l-6.63-7.11c-1.27-1.37-3.34-1.62-4.91-.6l-8.15,5.28c-1.57,1.02-2.18,3.01-1.45,4.73l3.78,8.92c.51,1.21.37,2.6-.37,3.69l-1.37,1.99c-.75,1.08-1.99,1.71-3.31,1.67l-9.7-.34c-1.87-.07-3.51,1.22-3.9,3.05l-2.03,9.51c-.39,1.83.59,3.67,2.32,4.37l9.02,3.66c1.22.49,2.1,1.58,2.34,2.87l.44,2.38c.24,1.29-.2,2.62-1.16,3.52l-7.12,6.64c-1.37,1.27-1.62,3.34-.6,4.91l5.28,8.15c1.02,1.57,3.01,2.18,4.73,1.45l8.95-3.79c1.21-.51,2.6-.37,3.69.37l1.99,1.37c1.08.75,1.71,1.99,1.67,3.31l-.34,9.74c-.07,1.87,1.22,3.51,3.04,3.9l9.49,2.03c1.83.39,3.67-.59,4.38-2.32l3.66-9.04c.49-1.22,1.58-2.1,2.87-2.34l2.38-.44c1.29-.24,2.62.2,3.52,1.16l6.63,7.11c1.27,1.37,3.34,1.62,4.91.6l8.15-5.28c1.57-1.02,2.18-3.01,1.45-4.73ZM61.21,67.29c-9.55,6.18-22.3,3.46-28.5-6.08-6.18-9.55-3.46-22.3,6.08-28.5,9.55-6.18,22.3-3.46,28.5,6.08,6.18,9.55,3.46,22.3-6.08,28.5Z"/></svg>