<?xml version="1.0" encoding="UTF-8"?><svg id="Layer_1" xmlns="http://www.w3.org/2000/svg" width="100" height="100" viewBox="0 0 100 100"><path d="M99.65,39.12c-1.04,3.06-4.76,5.73-6.93,7.9-6.76,6.76-13.21,14.47-20.57,20.57-4.53,3.76-10.73,1.36-11.17-4.63-.23-3.14-.12-6.34-.05-9.52h-25.32c-1.85,0-3.42-1.57-3.42-3.42,0-4.06.17-8.16,0-12.22,0-.05,0-.09,0-.14-.06.09-.13.18-.23.29-.99,1.09-2.1,2.1-3.14,3.14-6.14,6.14-12.28,12.29-18.42,18.43-.91.91-2.3,1.92-3.01,3.01-.25.38-.37.48-.43.47.52,1.6,4.39,4.31,5.46,5.38,6.04,6.04,12.08,12.08,18.12,18.13.42.42,1.09,1.4,1.69,1.84.09-.47-.04-1.23-.04-1.63v-10.81c0-1.85,1.57-3.42,3.42-3.42h21.8c4.41,0,4.4,6.83,0,6.83h-18.24c.25,3.91.65,8.23-.45,11.62-1.87,5.77-8.15,5.07-11.72,1.67-7.57-7.2-14.8-14.81-22.19-22.2-2.61-2.61-5.88-5.37-4.45-9.56,1.04-3.06,4.76-5.73,6.93-7.9,6.76-6.76,13.21-14.47,20.57-20.57,4.53-3.76,10.73-1.36,11.17,4.63.23,3.15.12,6.38.05,9.57h25.32c1.85,0,3.42,1.57,3.42,3.42,0,4.05-.16,8.13,0,12.17,0,.05,0,.09,0,.13.06-.09.13-.18.23-.29.99-1.09,2.1-2.1,3.14-3.14,6.14-6.14,12.28-12.29,18.42-18.43.91-.91,2.3-1.92,3.01-3.01.25-.38.37-.48.43-.47-.52-1.6-4.39-4.31-5.46-5.38-6.04-6.04-12.08-12.08-18.12-18.13-.42-.42-1.09-1.4-1.69-1.84-.09.47.04,1.23.04,1.63v10.81c0,1.85-1.57,3.42-3.42,3.42h-21.8c-4.41,0-4.4-6.83,0-6.83h18.24c-.25-3.91-.65-8.23.45-11.62,1.87-5.77,8.15-5.07,11.72-1.67,7.57,7.2,14.8,14.81,22.19,22.2,2.61,2.61,5.88,5.37,4.45,9.56Z"/></svg>