<?xml version="1.0" encoding="UTF-8"?><svg id="Layer_1" xmlns="http://www.w3.org/2000/svg" width="100" height="100" viewBox="0 0 100 100"><path d="M32.19,55.82v39.6c0,2.53-2.05,4.58-4.58,4.58H9.58c-2.53,0-4.58-2.05-4.58-4.58v-39.6c0-2.53,2.05-4.58,4.58-4.58h18.03c2.53,0,4.58,2.05,4.58,4.58ZM59.01,41.64h-18.03c-2.53,0-4.58,2.05-4.58,4.58v49.2c0,2.53,2.05,4.58,4.58,4.58h18.03c2.53,0,4.58-2.05,4.58-4.58v-49.2c0-2.53-2.05-4.58-4.58-4.58ZM90.42,30.34h-18.03c-2.53,0-4.58,2.05-4.58,4.58v60.5c0,2.53,2.05,4.58,4.58,4.58h18.03c2.53,0,4.58-2.05,4.58-4.58v-60.5c0-2.53-2.05-4.58-4.58-4.58ZM4.58,37.12c0-4.87,3.97-8.84,8.84-8.84,2.34,0,4.46.93,6.05,2.43l21.55-14.57c1.41-.96,3.19-1.3,4.86-.94,1.67.36,3.14,1.4,4.04,2.85l4.57,7.39,23.4-15.22c-.07-.46-.14-.91-.14-1.39,0-4.87,3.96-8.84,8.84-8.84s8.84,3.96,8.84,8.84-3.97,8.84-8.84,8.84c-1.95,0-3.74-.66-5.21-1.73l-23.57,15.33c-1.44.93-3.15,1.24-4.82.87-1.67-.37-3.09-1.38-3.99-2.84l-4.57-7.39-22.19,15c0,.07.02.14.02.21,0,4.87-3.96,8.84-8.84,8.84s-8.84-3.96-8.84-8.84ZM84.44,8.84c0,1.18.96,2.15,2.15,2.15s2.15-.96,2.15-2.15-.96-2.15-2.15-2.15-2.15.96-2.15,2.15ZM11.27,37.12c0,1.18.96,2.15,2.15,2.15s2.15-.96,2.15-2.15-.96-2.15-2.15-2.15-2.15.96-2.15,2.15Z"/></svg>