<?xml version="1.0" encoding="UTF-8"?><svg id="Layer_1" xmlns="http://www.w3.org/2000/svg" width="100" height="100" viewBox="0 0 100 100"><path d="M29.87,53.8H3.75c-2.07,0-3.75-1.68-3.75-3.75h0c0-2.07,1.68-3.75,3.75-3.75h26.12c2.07,0,3.75,1.68,3.75,3.75h0c0,2.07-1.68,3.75-3.75,3.75ZM26.35,38.2h0c0-2.07-1.68-3.75-3.75-3.75h-11.6c-2.07,0-3.75,1.68-3.75,3.75h0c0,2.07,1.68,3.75,3.75,3.75h11.6c2.07,0,3.75-1.68,3.75-3.75ZM26.35,61.92h0c0-2.07-1.68-3.75-3.75-3.75h-11.6c-2.07,0-3.75,1.68-3.75,3.75h0c0,2.07,1.68,3.75,3.75,3.75h11.6c2.07,0,3.75-1.68,3.75-3.75ZM100,50c0,1.63-.8,3.14-2.14,4.06l-.4.23-59.68,30.51c-.79.47-1.65.7-2.53.7-1.09,0-2.18-.37-3.08-1.1-1.7-1.38-2.29-3.66-1.46-5.69l10.21-24.91.21-.5,1.36-3.3-1.36-3.3-.16-.39-10.25-25.03c-.82-2.02-.24-4.3,1.46-5.68,1.62-1.31,3.84-1.46,5.61-.4l59.89,30.61.19.13c1.34.92,2.14,2.43,2.14,4.05ZM89.9,50l-50.07-25.59,8.97,21.9h13.63c2.07,0,3.75,1.68,3.75,3.75,0,1.04-.42,1.97-1.09,2.65-.68.68-1.62,1.1-2.66,1.1h-13.68l-8.93,21.78,50.07-25.58Z"/></svg>