<?xml version="1.0" encoding="UTF-8"?><svg id="Layer_1" xmlns="http://www.w3.org/2000/svg" width="100" height="100" viewBox="0 0 100 100"><path d="M88.54,14.34h-10.43v-4.1c0-4.02-3.26-7.28-7.28-7.28h-2.14c-4.02,0-7.28,3.26-7.28,7.28v4.1h-22.83v-4.1c0-4.02-3.26-7.28-7.28-7.28h-2.14c-4.02,0-7.28,3.26-7.28,7.28v4.1h-10.43C5.14,14.34,0,19.49,0,25.81v59.76c0,6.32,5.14,11.46,11.46,11.46h77.07c6.32,0,11.46-5.14,11.46-11.46V25.81c0-6.32-5.14-11.46-11.46-11.46ZM88.63,85.57c0,.05-.04.09-.09.09H11.46c-.05,0-.09-.04-.09-.09V25.81c0-.05.04-.09.09-.09h10.43v4.1c0,4.02,3.26,7.28,7.28,7.28h2.14c4.02,0,7.28-3.26,7.28-7.28v-4.1h22.83v4.1c0,4.02,3.26,7.28,7.28,7.28h2.14c4.02,0,7.28-3.26,7.28-7.28v-4.1h10.43c.05,0,.09.04.09.09v59.76Z"/></svg>