<?xml version="1.0" encoding="UTF-8"?><svg id="Layer_1" xmlns="http://www.w3.org/2000/svg" width="100" height="100" xmlns:xlink="http://www.w3.org/1999/xlink" viewBox="0 0 100 100"><defs><filter id="drop-shadow-1" x="24.7" y="21.92" width="50.6" height="60.82" filterUnits="userSpaceOnUse"><feOffset dx="0" dy=".9"/><feGaussianBlur result="blur" stdDeviation="0"/><feFlood flood-color="#000" flood-opacity=".2"/><feComposite in2="blur" operator="in"/><feComposite in="SourceGraphic"/></filter></defs><circle cx="50" cy="50" r="50" fill="#f1f1f2"/><circle cx="50" cy="50" r="43.51" fill="#39b54a"/><g filter="url(#drop-shadow-1)"><path d="M50,81.84c-6.86,0-13.27-3.32-18.06-9.36-4.67-5.88-7.24-13.67-7.24-21.93v-20.81c0-1.33.69-2.53,1.84-3.21,1.15-.67,2.53-.69,3.69-.04,1.96,1.09,4.25,1.67,6.65,1.67,4.17,0,8.04-1.8,10.1-4.69.69-.97,1.82-1.55,3.02-1.55h0c1.2,0,2.33.58,3.02,1.55,2.06,2.9,5.93,4.69,10.1,4.69,2.39,0,4.69-.58,6.65-1.67h0c1.16-.65,2.54-.64,3.69.04,1.15.68,1.84,1.87,1.84,3.21v20.81c0,8.26-2.57,16.05-7.24,21.93-4.79,6.03-11.2,9.36-18.06,9.36ZM29.21,31.03v19.53c0,14.77,9.33,26.78,20.79,26.78s20.79-12.01,20.79-26.78v-19.53c-2.34,1.08-4.97,1.64-7.67,1.64s-5.54-.62-7.95-1.78c-2.04-.99-3.81-2.35-5.17-3.97-1.36,1.62-3.13,2.98-5.17,3.97-2.41,1.16-5.16,1.78-7.95,1.78s-5.32-.57-7.67-1.64Z" fill="#fff"/><path d="M48.25,65.41l-11.18-12.52c-.54-.61-.49-1.53.12-2.08l4.26-3.8c.61-.54,1.53-.49,2.08.12l4.02,4.5c.63.7,1.74.64,2.29-.12l8.25-11.43c.48-.66,1.39-.81,2.05-.33l4.63,3.34c.66.48.81,1.39.33,2.05l-14.55,20.15c-.55.76-1.66.82-2.29.12Z" fill="#fff"/></g></svg>