<?xml version="1.0" encoding="UTF-8"?><svg id="Layer_1" xmlns="http://www.w3.org/2000/svg" width="100" height="100" xmlns:xlink="http://www.w3.org/1999/xlink" viewBox="0 0 100 100"><defs><filter id="drop-shadow-1" x="24.7" y="21.92" width="50.6" height="60.82" filterUnits="userSpaceOnUse"><feOffset dx="0" dy=".9"/><feGaussianBlur result="blur" stdDeviation="0"/><feFlood flood-color="#000" flood-opacity=".2"/><feComposite in2="blur" operator="in"/><feComposite in="SourceGraphic"/></filter></defs><circle cx="50" cy="50" r="50" fill="#f1f1f2"/><circle cx="50" cy="50" r="43.51" fill="#fc0000"/><path d="M73.46,26.53c-1.15-.67-2.53-.69-3.69-.04h0c-1.96,1.09-4.25,1.67-6.65,1.67-4.17,0-8.04-1.8-10.1-4.69-.69-.97-1.82-1.55-3.02-1.55h0c-1.2,0-2.33.58-3.02,1.55-2.06,2.9-5.93,4.69-10.1,4.69-2.39,0-4.69-.58-6.65-1.67-1.16-.65-2.54-.63-3.69.04-1.15.68-1.84,1.87-1.84,3.21v20.81c0,8.26,2.57,16.05,7.24,21.93,4.79,6.03,11.2,9.36,18.06,9.36s13.27-3.32,18.06-9.36c4.67-5.88,7.24-13.67,7.24-21.93v-20.81c0-1.33-.69-2.53-1.84-3.21ZM50,77.33c-4.22,0-8.15-1.63-11.43-4.43-.9-.77-1.21-2.05-.77-3.16,1.19-2.99,3.45-5.49,6.43-6.95.9-.44,1.48-1.3,1.57-2.29.09-.97-.33-1.9-1.12-2.48-2.63-1.92-3.99-5-3.65-8.25.43-4.17,3.77-7.54,7.94-8,2.61-.29,5.12.51,7.06,2.24,1.91,1.71,3.01,4.16,3.01,6.73,0,2.87-1.38,5.59-3.69,7.28-.93.67-1.35,1.83-1.05,2.98.21.79.79,1.45,1.52,1.81,2.97,1.47,5.22,3.97,6.4,6.95.43,1.1.12,2.37-.78,3.13-3.28,2.8-7.21,4.43-11.43,4.43ZM70.79,50.55c0,6.45-1.78,12.38-4.74,17.01-.28.44-.92.4-1.15-.07-1.46-3.05-3.83-5.62-6.86-7.31,2.74-2.34,4.36-5.8,4.36-9.44s-1.51-6.89-4.13-9.24c-2.62-2.35-6.15-3.47-9.68-3.08-5.74.64-10.34,5.27-10.92,11.01-.43,4.15,1.16,8.11,4.29,10.75-3.03,1.69-5.4,4.26-6.86,7.31-.22.47-.87.51-1.15.07-2.96-4.63-4.74-10.55-4.74-17.01v-19.53c2.34,1.08,4.97,1.64,7.67,1.64s5.54-.61,7.95-1.78c2.04-.99,3.81-2.35,5.17-3.97,1.36,1.62,3.13,2.98,5.17,3.97,2.41,1.16,5.16,1.78,7.95,1.78s5.33-.57,7.67-1.64v19.53Z" fill="#fff" filter="url(#drop-shadow-1)"/></svg>