<?xml version="1.0" encoding="UTF-8"?><svg id="Layer_1" xmlns="http://www.w3.org/2000/svg" width="100" height="100" viewBox="0 0 100 100"><path d="M50,0C22.38,0,0,22.39,0,50s22.38,50,50,50,50-22.38,50-50S77.61,0,50,0ZM50,93.51c-24.03,0-43.51-19.47-43.51-43.51S25.97,6.49,50,6.49s43.51,19.48,43.51,43.51-19.48,43.51-43.51,43.51ZM33.101,34.84l15.593-15.592c.722-.722,1.892-.722,2.614,0l15.592,15.592c1.164,1.164.34,3.156-1.307,3.156h-7.816v14.863c0,1.857-1.505,3.362-3.362,3.362h-8.828c-1.857,0-3.362-1.505-3.362-3.362v-14.863h-7.816c-1.647,0-2.472-1.991-1.307-3.156ZM67.666,44.72h8v21.815c0,4.344-3.533,7.877-7.877,7.877h-35.578c-4.344,0-7.877-3.533-7.877-7.877v-20.454h8v20.331h35.332v-21.692Z"/></svg>