<?xml version="1.0" encoding="UTF-8"?><svg id="Layer_1" xmlns="http://www.w3.org/2000/svg" width="100" height="100" viewBox="0 0 100 100"><path d="M85.36,18.46C65.83-1.07,34.17-1.07,14.64,18.46c-19.52,19.53-19.52,51.19,0,70.72.73.73,1.48,1.43,2.24,2.1.85.76,1.73,1.49,2.62,2.18,1.71,1.32,4.25.53,4.91-1.53.25-.78.54-1.55.86-2.3,2.83-6.69,8.33-12.12,15.4-14.73,1.21-.45,2.23-1.39,2.54-2.64.43-1.75-.42-3.47-1.94-4.25-4.89-2.41-8.45-6.59-10.06-11.57-.64-1.94-.98-4-.98-6.13,0-2.33.4-4.57,1.16-6.65,2.73-7.64,10.05-13.13,18.62-13.13s15.89,5.49,18.62,13.13h0c.75,2.09,1.16,4.32,1.16,6.65,0,2.13-.34,4.19-.98,6.13-1.61,4.98-5.17,9.16-10.06,11.57-1.53.78-2.37,2.5-1.94,4.25.31,1.26,1.32,2.2,2.54,2.64,7.07,2.61,12.56,8.04,15.4,14.73.32.75.61,1.52.86,2.3.66,2.06,3.2,2.85,4.91,1.53.89-.69,1.77-1.42,2.62-2.18.76-.67,1.51-1.37,2.24-2.1,19.52-19.53,19.52-51.19,0-70.72ZM80.77,84.58c-.05.05-.1.1-.15.14-2.85-5.69-7.27-10.54-12.79-13.9,5.89-5.09,9.36-12.49,9.36-20.52,0-2.23-.26-4.41-.79-6.48-.77-3.17-2.09-6.12-3.87-8.74-4.9-7.22-13.16-11.98-22.53-11.98s-17.63,4.76-22.53,11.98c-1.78,2.62-3.1,5.57-3.87,8.74-.53,2.07-.8,4.25-.8,6.48,0,8.03,3.48,15.43,9.37,20.52-5.52,3.36-9.94,8.21-12.79,13.9-.05-.04-.1-.09-.15-.14-16.99-17-16.99-44.54,0-61.54,17-16.99,44.54-16.99,61.54,0,16.99,17,16.99,44.54,0,61.54Z"/></svg>