<?xml version="1.0" encoding="UTF-8"?><svg id="Layer_1" xmlns="http://www.w3.org/2000/svg" width="100" height="100" viewBox="0 0 100 100"><path d="M69.367,7.682c-1.294-.569-2.802.083-3.3,1.406-.464,1.233.124,2.605,1.329,3.136,15.547,6.848,25.838,22.47,25.838,39.591,0,3.826-.505,7.536-1.443,11.071-1.45-2.988-3.736-5.538-6.609-7.295,2.985-2.575,4.746-6.33,4.746-10.405,0-7.611-6.189-13.8-13.8-13.8-3.55,0-6.781,1.361-9.229,3.574-1.092-4.463-3.916-8.353-7.85-10.755,2.988-2.579,4.747-6.333,4.747-10.41,0-7.607-6.189-13.796-13.797-13.796s-13.797,6.189-13.797,13.796c0,4.076,1.759,7.831,4.747,10.41-3.934,2.402-6.758,6.292-7.85,10.755-2.447-2.213-5.679-3.574-9.229-3.574-7.611,0-13.8,6.189-13.8,13.8,0,4.074,1.761,7.83,4.746,10.405-2.873,1.757-5.16,4.307-6.609,7.295-.937-3.535-1.443-7.245-1.443-11.071,0-17.122,10.291-32.743,25.838-39.591,1.206-.531,1.793-1.903,1.329-3.136-.498-1.323-2.006-1.975-3.3-1.406C13.293,15.309,1.815,32.726,1.815,51.815c0,26.569,21.616,48.185,48.185,48.185s48.185-21.616,48.185-48.185c0-19.089-11.478-36.506-28.818-44.133ZM45.367,26.239c.709-.256,1.197-.911,1.24-1.663.042-.753-.369-1.458-1.044-1.792-3.452-1.709-5.596-5.152-5.596-8.987,0-5.532,4.501-10.033,10.034-10.033s10.034,4.501,10.034,10.033c0,3.835-2.144,7.279-5.596,8.987-.675.334-1.087,1.04-1.044,1.792.043.753.531,1.407,1.24,1.663,5.387,1.946,9.006,7.102,9.006,12.831,0,.084.014.164.025.246-.843,1.784-1.328,3.769-1.328,5.87,0,4.074,1.754,7.83,4.746,10.405-2.306,1.415-4.23,3.324-5.651,5.574-2.483-3.664-6.677-6.076-11.43-6.076s-8.947,2.412-11.43,6.076c-1.422-2.249-3.346-4.159-5.651-5.574,2.992-2.575,4.746-6.33,4.746-10.405,0-2.101-.486-4.086-1.328-5.87.011-.081.025-.161.025-.246,0-5.729,3.619-10.886,9.006-12.831ZM10.321,68.962c.569-5.114,4.003-9.561,8.918-11.334.707-.255,1.195-.912,1.238-1.662.043-.757-.368-1.464-1.047-1.797-3.452-1.705-5.595-5.149-5.595-8.983,0-5.538,4.506-10.037,10.037-10.037s10.03,4.499,10.03,10.037c0,3.834-2.143,7.278-5.595,8.983-.672.332-1.082,1.04-1.047,1.797.05.75.531,1.408,1.245,1.662,3.791,1.372,6.712,4.336,8.099,7.971-.269,1.054-.403,2.157-.403,3.289,0,4.074,1.761,7.83,4.753,10.412-4.35,2.651-7.343,7.122-8.136,12.178-10.055-4.373-18.133-12.457-22.497-22.516ZM36.433,92.856c.502-5.195,3.958-9.73,8.934-11.526.707-.255,1.195-.912,1.238-1.662.043-.757-.368-1.457-1.04-1.797-2.483-1.224-4.286-3.346-5.107-5.871-.325-.983-.495-2.03-.495-3.112,0-1.181.205-2.32.587-3.374,1.386-3.876,5.1-6.663,9.45-6.663s8.063,2.787,9.45,6.663v.007c.382,1.054.587,2.186.587,3.367,0,1.082-.17,2.129-.495,3.112-.82,2.525-2.624,4.647-5.107,5.871-.672.34-1.082,1.04-1.04,1.797.042.75.53,1.407,1.238,1.662,4.976,1.796,8.432,6.332,8.934,11.526-4.27,1.415-8.828,2.193-13.567,2.193s-9.297-.777-13.567-2.193ZM67.182,91.478c-.793-5.057-3.786-9.527-8.136-12.178,2.992-2.582,4.753-6.338,4.753-10.412,0-1.132-.134-2.235-.403-3.289,1.386-3.636,4.308-6.599,8.099-7.971.714-.255,1.195-.912,1.245-1.662.035-.757-.375-1.464-1.047-1.797-3.452-1.705-5.595-5.149-5.595-8.983,0-5.538,4.499-10.037,10.03-10.037s10.037,4.499,10.037,10.037c0,3.834-2.143,7.278-5.595,8.983-.679.332-1.089,1.04-1.047,1.797.042.75.53,1.408,1.238,1.662,4.915,1.774,8.35,6.22,8.918,11.334-4.364,10.059-12.442,18.143-22.497,22.516Z"/></svg>