<?xml version="1.0" encoding="UTF-8"?><svg id="Layer_1" xmlns="http://www.w3.org/2000/svg" width="100" height="100" viewBox="0 0 100 100"><path d="M92.35,10.46l-2.81-2.81-7.65-7.65H26.44c-1.61,0-2.93,1.32-2.93,2.93v10.29h-8.82c-1.61,0-2.93,1.32-2.93,2.93v7.36H2.93c-1.61,0-2.93,1.32-2.93,2.93v70.63c0,1.61,1.32,2.93,2.93,2.93h70.63c1.61,0,2.93-1.32,2.93-2.93v-1.77c0-1.63-1.32-2.95-2.95-2.95H9.08c-.79,0-1.43-.64-1.43-1.43v-58.33c0-.79.64-1.43,1.43-1.43h2.68v54.63c0,1.61,1.31,2.92,2.92,2.92h70.63c1.61,0,2.93-1.32,2.93-2.93v-1.77c0-1.63-1.32-2.95-2.95-2.95H20.83c-.79,0-1.43-.64-1.43-1.43V22.3c0-.79.64-1.43,1.43-1.43h2.68v52.69c0,1.61,1.32,2.93,2.93,2.93h70.63c1.61,0,2.93-1.32,2.93-2.93V18.11l-7.65-7.65ZM79.62,8.55l11.84,11.83h-11.84v-11.83ZM92.35,67.41c0,.79-.64,1.43-1.43,1.43h-58.33c-.79,0-1.43-.64-1.43-1.43V9.08c0-.79.64-1.43,1.43-1.43h37.95c.79,0,1.43.64,1.43,1.43v16.02c0,.32.05.63.15.92.29.87.99,1.57,1.86,1.86.29.1.6.15.92.15h16.02c.79,0,1.43.64,1.43,1.43v37.95Z"/></svg>