<?xml version="1.0" encoding="UTF-8"?><svg id="Layer_1" xmlns="http://www.w3.org/2000/svg" width="100" height="100" viewBox="0 0 100 100"><path d="M15.38,0C8.11.23,2.55,5.54,2.04,12.8v61.07c.48,7.67,5.78,11.72,12.73,13.59,17.71,4.77,36.24,7.86,54.04,12.43,6.9.87,13.2-3.08,15.29-9.69,4.01-18.85,9.23-37.5,13.07-56.39.4-1.98.91-3.78.78-5.83-.35-5.78-4.25-10.75-9.74-12.47-4.21-1.32-8.91-1.87-13.17-3.07-.61-4.15-2.47-7.89-6.06-10.19-2.29-1.47-4.76-2.09-7.47-2.24M15,79c-2.6-.15-4.9-2.34-5.13-4.95V12.79c.11-1.2.73-2.54,1.57-3.38.84-.84,2.18-1.46,3.38-1.57h47.44c2.61.24,4.8,2.54,4.95,5.14v60.88c-.24,2.74-2.4,4.9-5.13,5.13H15ZM47.47,87.05c-.25-.08-.57-.06-.63-.4.54-.07,1.05.17,1.58.19,3.94.17,8.98.22,12.9,0,8.18-.46,13.29-5.54,13.72-13.72V20.36c3.33,1.01,7.07,1.39,10.38,2.4,3.18.96,5.02,3.43,4.71,6.82-4.69,18.65-8.11,37.72-12.95,56.32-1,3.84-2.41,6.41-6.91,6.34-7.29-2.06-15.66-2.93-22.81-5.2ZM15.38,0C8.11.23,2.55,5.54,2.04,12.8v61.07c.48,7.67,5.78,11.72,12.73,13.59,17.71,4.77,36.24,7.86,54.04,12.43,6.9.87,13.2-3.08,15.29-9.69,4.01-18.85,9.23-37.5,13.07-56.39.4-1.98.91-3.78.78-5.83-.35-5.78-4.25-10.75-9.74-12.47-4.21-1.32-8.91-1.87-13.17-3.07-.61-4.15-2.47-7.89-6.06-10.19-2.29-1.47-4.76-2.09-7.47-2.24H15.38ZM15,79c-2.6-.15-4.9-2.34-5.13-4.95V12.79c.11-1.2.73-2.54,1.57-3.38.84-.84,2.18-1.46,3.38-1.57h47.44c2.61.24,4.8,2.54,4.95,5.14v60.88c-.24,2.74-2.4,4.9-5.13,5.13H15ZM47.47,87.05c-.25-.08-.57-.06-.63-.4.54-.07,1.05.17,1.58.19,3.94.17,8.98.22,12.9,0,8.18-.46,13.29-5.54,13.72-13.72V20.36c3.33,1.01,7.07,1.39,10.38,2.4,3.18.96,5.02,3.43,4.71,6.82-4.69,18.65-8.11,37.72-12.95,56.32-1,3.84-2.41,6.41-6.91,6.34-7.29-2.06-15.66-2.93-22.81-5.2Z"/><rect x="17.4" y="19.29" width="42.85" height="9.8" rx="4.9" ry="4.9"/><rect x="17.4" y="38.3" width="42.85" height="9.8" rx="4.9" ry="4.9"/><rect x="17.4" y="57.3" width="42.85" height="9.8" rx="4.9" ry="4.9"/></svg>