<?xml version="1.0" encoding="UTF-8"?><svg id="Layer_1" xmlns="http://www.w3.org/2000/svg" width="100" height="100" viewBox="0 0 100 100"><path d="M50,17.59c-12.62,0-22.85,10.23-22.85,22.85,0,.2,0,.39,0,.59.26,14.86,10.56,23.62,22.84,35.9,6.22-6.22,11.93-11.54,16.09-17.21,4.05-5.52,6.62-11.36,6.75-18.69,0-.2,0-.39,0-.59,0-12.62-10.23-22.85-22.85-22.85M50,51.09c-5.88,0-10.65-4.77-10.65-10.65s4.76-10.65,10.65-10.65,10.65,4.77,10.65,10.65-4.77,10.65-10.65,10.65M69.66,74.62c0,6.02-10.13,9.27-19.66,9.27s-19.66-3.25-19.66-9.27c0-3.55,3.53-6.14,8.37-7.66.9.97,1.84,1.94,2.81,2.93-4.79,1.17-7.59,3.19-7.59,4.73,0,2.31,6.26,5.68,16.07,5.68s16.07-3.37,16.07-5.68c0-1.55-2.8-3.57-7.59-4.73.96-.98,1.9-1.96,2.8-2.93,4.85,1.52,8.37,4.11,8.37,7.66M50,0C22.38,0,0,22.39,0,50s22.38,50,50,50,50-22.38,50-50S77.61,0,50,0ZM50,93.51c-24.03,0-43.51-19.48-43.51-43.51S25.97,6.49,50,6.49s43.51,19.48,43.51,43.51-19.49,43.51-43.51,43.51ZM50,17.59c-12.62,0-22.85,10.23-22.85,22.85,0,.2,0,.39,0,.59.26,14.86,10.56,23.62,22.84,35.9,6.22-6.22,11.93-11.54,16.09-17.21,4.05-5.52,6.62-11.36,6.75-18.69,0-.2,0-.39,0-.59,0-12.62-10.23-22.85-22.85-22.85M50,51.09c-5.88,0-10.65-4.77-10.65-10.65s4.76-10.65,10.65-10.65,10.65,4.77,10.65,10.65-4.77,10.65-10.65,10.65M69.66,74.62c0,6.02-10.13,9.27-19.66,9.27s-19.66-3.25-19.66-9.27c0-3.55,3.53-6.14,8.37-7.66.9.97,1.84,1.94,2.81,2.93-4.79,1.17-7.59,3.19-7.59,4.73,0,2.31,6.26,5.68,16.07,5.68s16.07-3.37,16.07-5.68c0-1.55-2.8-3.57-7.59-4.73.96-.98,1.9-1.96,2.8-2.93,4.85,1.52,8.37,4.11,8.37,7.66"/></svg>