<?xml version="1.0" encoding="UTF-8"?><svg id="Layer_1" xmlns="http://www.w3.org/2000/svg" width="100" height="100" viewBox="0 0 100 100"><path d="M50,17.593c-12.62,0-22.851,10.23-22.851,22.848,0,.198.003.394.008.59.263,14.855,10.56,23.616,22.843,35.898,6.222-6.222,11.931-11.54,16.09-17.206,4.048-5.516,6.621-11.36,6.75-18.692.005-.196.008-.392.008-.59,0-12.618-10.23-22.848-22.848-22.848M50,51.087c-5.881,0-10.646-4.767-10.646-10.646s4.765-10.646,10.646-10.646,10.646,4.767,10.646,10.646-4.767,10.646-10.646,10.646M69.657,74.616c0,6.018-10.128,9.267-19.658,9.267s-19.658-3.249-19.658-9.267c0-3.551,3.526-6.137,8.372-7.66.9.969,1.84,1.943,2.809,2.927-4.792,1.167-7.591,3.185-7.591,4.733,0,2.315,6.256,5.682,16.068,5.682s16.072-3.368,16.072-5.682c0-1.548-2.799-3.566-7.591-4.733.964-.984,1.904-1.958,2.804-2.927,4.846,1.523,8.372,4.11,8.372,7.66M50,0C22.384,0,0,22.389,0,50s22.384,50,50,50,50-22.384,50-50S77.611,0,50,0ZM50,93.515c-24.03,0-43.515-19.479-43.515-43.515S25.97,6.491,50,6.491s43.515,19.479,43.515,43.509-19.485,43.515-43.515,43.515ZM50,17.593c-12.62,0-22.851,10.23-22.851,22.848,0,.198.003.394.008.59.263,14.855,10.56,23.616,22.843,35.898,6.222-6.222,11.931-11.54,16.09-17.206,4.048-5.516,6.621-11.36,6.75-18.692.005-.196.008-.392.008-.59,0-12.618-10.23-22.848-22.848-22.848M50,51.087c-5.881,0-10.646-4.767-10.646-10.646s4.765-10.646,10.646-10.646,10.646,4.767,10.646,10.646-4.767,10.646-10.646,10.646M69.657,74.616c0,6.018-10.128,9.267-19.658,9.267s-19.658-3.249-19.658-9.267c0-3.551,3.526-6.137,8.372-7.66.9.969,1.84,1.943,2.809,2.927-4.792,1.167-7.591,3.185-7.591,4.733,0,2.315,6.256,5.682,16.068,5.682s16.072-3.368,16.072-5.682c0-1.548-2.799-3.566-7.591-4.733.964-.984,1.904-1.958,2.804-2.927,4.846,1.523,8.372,4.11,8.372,7.66"/></svg>