<?xml version="1.0" encoding="UTF-8"?><svg id="Layer_1" xmlns="http://www.w3.org/2000/svg" width="100" height="100" viewBox="0 0 100 100"><path d="M99.24,48.13l-14.68-17.34c-1.65-1.67-4.48-.49-4.48,1.86v6.25h-3.34c-3.08,0-5.57-2.51-5.57-5.61V8.71c0-4.81-3.87-8.71-8.65-8.71H8.65C3.87,0,0,3.9,0,8.71v82.58c0,4.81,3.87,8.71,8.65,8.71h53.85c4.77,0,8.66-3.92,8.66-8.72v-24.57c0-3.1,2.5-5.61,5.57-5.61h3.34v6.25c0,2.35,2.83,3.53,4.48,1.86l14.68-17.34c1.02-1.03,1.02-2.7,0-3.74ZM63.55,91.29c0,.59-.46,1.06-1.05,1.06H8.65c-.57,0-1.05-.47-1.05-1.06V8.71c0-.59.48-1.06,1.05-1.06h53.85c.59,0,1.05.47,1.05,1.06v82.58ZM45.95,20.88c1.73,0,3.13,1.42,3.13,3.16v17.25c0,1.74-1.41,3.16-3.13,3.16h-20.73c-1.73,0-3.13-1.42-3.13-3.16v-17.25c0-1.74,1.41-3.16,3.13-3.16h20.73M45.95,15.32h-20.73c-4.78,0-8.66,3.9-8.66,8.72v17.25c0,4.81,3.88,8.72,8.66,8.72h20.73c4.78,0,8.66-3.9,8.66-8.72v-17.25c0-4.81-3.88-8.72-8.66-8.72h0ZM54.61,61.81v.47c0,2.54-2.05,4.61-4.58,4.61h-28.9c-2.53,0-4.58-2.06-4.58-4.61v-.47c0-2.54,2.05-4.61,4.58-4.61h28.9c2.53,0,4.58,2.06,4.58,4.61ZM54.61,78.69v.47c0,2.54-2.05,4.61-4.58,4.61h-28.9c-2.53,0-4.58-2.06-4.58-4.61v-.47c0-2.54,2.05-4.61,4.58-4.61h28.9c2.53,0,4.58,2.06,4.58,4.61Z"/></svg>